<svg width="105" height="103" viewBox="0 0 105 103" fill="none" xmlns="http://www.w3.org/2000/svg">
<g filter="url(#filter0_d_4988_26567)">
<path fill-rule="evenodd" clip-rule="evenodd" d="M12.7876 5.25061H88.2876C90.4967 5.25061 92.2876 7.04147 92.2876 9.25061V83.4326C92.2876 85.6418 90.4967 87.4326 88.2876 87.4326H12.7876C10.5785 87.4326 8.7876 85.6418 8.7876 83.4326V9.2506C8.7876 7.04147 10.5785 5.25061 12.7876 5.25061ZM4.7876 9.2506C4.7876 4.83232 8.36932 1.25061 12.7876 1.25061H88.2876C92.7059 1.25061 96.2876 4.83233 96.2876 9.25061V83.4326C96.2876 87.8509 92.7059 91.4326 88.2876 91.4326H12.7876C8.36932 91.4326 4.7876 87.8509 4.7876 83.4326V9.2506ZM82.896 27.6094C82.896 34.5993 77.1306 40.3645 69.896 40.3645C62.6614 40.3645 56.896 34.5993 56.896 27.6094C56.896 20.6194 62.6614 14.8542 69.896 14.8542C77.1306 14.8542 82.896 20.6194 82.896 27.6094ZM86.896 27.6094C86.896 36.863 79.2848 44.3645 69.896 44.3645C60.5072 44.3645 52.896 36.863 52.896 27.6094C52.896 18.3558 60.5072 10.8542 69.896 10.8542C79.2848 10.8542 86.896 18.3558 86.896 27.6094ZM76.5891 21.004C77.5155 21.6056 77.7788 22.8442 77.1773 23.7706L70.1373 34.6122L68.6825 36.8526L66.9424 34.8257L62.1024 29.1881C61.3829 28.35 61.479 27.0874 62.3171 26.3679C63.1552 25.6484 64.4178 25.7445 65.1374 26.5826L68.2373 30.1933L73.8225 21.5922C74.424 20.6658 75.6627 20.4025 76.5891 21.004ZM38.8718 58.5354C38.8718 60.8289 36.9694 62.7868 34.4999 62.7868C32.0304 62.7868 30.1279 60.8289 30.1279 58.5354C30.1279 56.242 32.0304 54.2841 34.4999 54.2841C36.9694 54.2841 38.8718 56.242 38.8718 58.5354ZM42.8718 58.5354C42.8718 63.0925 39.1236 66.7868 34.4999 66.7868C29.8762 66.7868 26.1279 63.0925 26.1279 58.5354C26.1279 53.9783 29.8762 50.2841 34.4999 50.2841C39.1236 50.2841 42.8718 53.9783 42.8718 58.5354ZM24.8289 78.3386C25.1335 77.2232 25.6674 76.0536 26.5258 75.0404C27.8913 73.4285 30.2624 71.99 34.4998 71.99C38.8784 71.99 41.2343 73.4387 42.5564 75.0271C43.3975 76.0375 43.9073 77.2101 44.1944 78.3386H24.8289ZM22.7508 82.3233C22.6402 82.3371 22.5268 82.3419 22.4116 82.3368C21.3082 82.2881 20.4531 81.3541 20.5017 80.2506C20.5986 78.0547 21.3186 74.9988 23.4738 72.4548C25.6916 69.8369 29.2372 67.99 34.4998 67.99C39.8713 67.99 43.4321 69.8267 45.6308 72.4681C47.7637 75.0306 48.4028 78.0961 48.4978 80.2506C48.5465 81.3541 47.6914 82.2881 46.5879 82.3368C46.4728 82.3419 46.3596 82.3371 46.2489 82.3233C46.1674 82.3334 46.0843 82.3386 46 82.3386H23C22.9156 82.3386 22.8325 82.3334 22.7508 82.3233ZM16 12.3037H18H44.25C45.3546 12.3037 46.25 13.1991 46.25 14.3037C46.25 15.4083 45.3546 16.3037 44.25 16.3037H20V49.2924C20 50.3969 19.1046 51.2924 18 51.2924C16.8954 51.2924 16 50.3969 16 49.2924V14.3037V12.3037ZM82.2476 81.353H84.2476V79.353V54.2203C84.2476 53.1158 83.3521 52.2203 82.2476 52.2203C81.143 52.2203 80.2476 53.1158 80.2476 54.2203V77.353H55.9976C54.893 77.353 53.9976 78.2485 53.9976 79.353C53.9976 80.4576 54.893 81.353 55.9976 81.353H82.2476Z" fill="white"/>
</g>
<defs>
<filter id="filter0_d_4988_26567" x="0.787598" y="0.25061" width="103.5" height="102.182" filterUnits="userSpaceOnUse" color-interpolation-filters="sRGB">
<feFlood flood-opacity="0" result="BackgroundImageFix"/>
<feColorMatrix in="SourceAlpha" type="matrix" values="0 0 0 0 0 0 0 0 0 0 0 0 0 0 0 0 0 0 127 0" result="hardAlpha"/>
<feOffset dx="2" dy="5"/>
<feGaussianBlur stdDeviation="3"/>
<feComposite in2="hardAlpha" operator="out"/>
<feColorMatrix type="matrix" values="0 0 0 0 0.168627 0 0 0 0 0.164706 0 0 0 0 0.290196 0 0 0 0.88 0"/>
<feBlend mode="normal" in2="BackgroundImageFix" result="effect1_dropShadow_4988_26567"/>
<feBlend mode="normal" in="SourceGraphic" in2="effect1_dropShadow_4988_26567" result="shape"/>
</filter>
</defs>
</svg>
