<svg width="104" height="103" viewBox="0 0 104 103" fill="none" xmlns="http://www.w3.org/2000/svg">
<g filter="url(#filter0_d_4988_26565)">
<path fill-rule="evenodd" clip-rule="evenodd" d="M49.0376 11.2064C50.7494 11.2064 52.0376 9.8539 52.0376 8.30725C52.0376 6.7606 50.7494 5.40808 49.0376 5.40808C47.3258 5.40808 46.0376 6.7606 46.0376 8.30725C46.0376 9.8539 47.3258 11.2064 49.0376 11.2064ZM49.0376 15.2064C52.9036 15.2064 56.0376 12.1176 56.0376 8.30725C56.0376 4.49695 52.9036 1.40808 49.0376 1.40808C45.1716 1.40808 42.0376 4.49695 42.0376 8.30725C42.0376 12.1176 45.1716 15.2064 49.0376 15.2064ZM50.2957 17.594L49.0376 16.5761L47.7795 17.594L41.7795 22.449C40.9209 23.1438 40.788 24.4032 41.4828 25.2618C42.1776 26.1205 43.437 26.2533 44.2957 25.5585L47.0376 23.3399V29.5523V30.1051C39.257 31.0038 33.0825 37.0809 32.1575 44.7454H26.3066L28.5002 42.112C29.2072 41.2633 29.0923 40.0022 28.2436 39.2952C27.3949 38.5882 26.1338 38.7032 25.4268 39.5519L20.5009 45.4654L19.4346 46.7455L20.5009 48.0255L25.4268 53.9391C26.1338 54.7878 27.3949 54.9027 28.2436 54.1958C29.0923 53.4888 29.2072 52.2277 28.5002 51.379L26.3065 48.7454H32.1574C33.0824 56.41 39.257 62.4872 47.0376 63.3859V69.1655L44.2957 66.9468C43.437 66.252 42.1776 66.3849 41.4828 67.2435C40.788 68.1022 40.9209 69.3616 41.7795 70.0564L47.7795 74.9113L49.0376 75.9293L50.2957 74.9113L56.2957 70.0564C57.1543 69.3616 57.2872 68.1022 56.5924 67.2435C55.8976 66.3849 54.6382 66.252 53.7795 66.9468L51.0376 69.1655V63.3859C58.8182 62.4872 64.9928 56.41 65.9177 48.7454H66.482H72.7687L70.575 51.379C69.868 52.2277 69.9829 53.4888 70.8316 54.1958C71.6803 54.9027 72.9414 54.7878 73.6484 53.9391L78.5743 48.0255L79.6406 46.7455L78.5743 45.4654L73.6484 39.5519C72.9414 38.7032 71.6803 38.5882 70.8316 39.2952C69.9829 40.0022 69.868 41.2633 70.575 42.112L72.7686 44.7454H66.482H65.9177C64.9927 37.0809 58.8182 31.0038 51.0376 30.1051V29.5523V23.3399L53.7795 25.5585C54.6382 26.2533 55.8976 26.1205 56.5924 25.2618C57.2872 24.4032 57.1543 23.1438 56.2957 22.449L50.2957 17.594ZM49.0376 59.5006C56.2722 59.5006 62.0376 53.7354 62.0376 46.7455C62.0376 39.7555 56.2722 33.9904 49.0376 33.9904C41.803 33.9904 36.0376 39.7555 36.0376 46.7455C36.0376 53.7354 41.803 59.5006 49.0376 59.5006ZM91.0376 46.7455C91.0376 48.2921 89.7494 49.6447 88.0376 49.6447C86.3258 49.6447 85.0376 48.2921 85.0376 46.7455C85.0376 45.1988 86.3258 43.8463 88.0376 43.8463C89.7494 43.8463 91.0376 45.1988 91.0376 46.7455ZM95.0376 46.7455C95.0376 50.5558 91.9036 53.6447 88.0376 53.6447C84.1716 53.6447 81.0376 50.5558 81.0376 46.7455C81.0376 42.9352 84.1716 39.8463 88.0376 39.8463C91.9036 39.8463 95.0376 42.9352 95.0376 46.7455ZM49.0376 87.0973C50.7494 87.0973 52.0376 85.7448 52.0376 84.1981C52.0376 82.6515 50.7494 81.299 49.0376 81.299C47.3258 81.299 46.0376 82.6515 46.0376 84.1981C46.0376 85.7448 47.3258 87.0973 49.0376 87.0973ZM49.0376 91.0973C52.9036 91.0973 56.0376 88.0084 56.0376 84.1981C56.0376 80.3878 52.9036 77.299 49.0376 77.299C45.1716 77.299 42.0376 80.3878 42.0376 84.1981C42.0376 88.0084 45.1716 91.0973 49.0376 91.0973ZM14.0376 46.7455C14.0376 48.2921 12.7494 49.6447 11.0376 49.6447C9.32583 49.6447 8.0376 48.2921 8.0376 46.7455C8.0376 45.1988 9.32583 43.8463 11.0376 43.8463C12.7494 43.8463 14.0376 45.1988 14.0376 46.7455ZM18.0376 46.7455C18.0376 50.5558 14.9036 53.6447 11.0376 53.6447C7.1716 53.6447 4.0376 50.5558 4.0376 46.7455C4.0376 42.9352 7.1716 39.8463 11.0376 39.8463C14.9036 39.8463 18.0376 42.9352 18.0376 46.7455Z" fill="white"/>
</g>
<defs>
<filter id="filter0_d_4988_26565" x="0.0375977" y="0.408081" width="103" height="101.689" filterUnits="userSpaceOnUse" color-interpolation-filters="sRGB">
<feFlood flood-opacity="0" result="BackgroundImageFix"/>
<feColorMatrix in="SourceAlpha" type="matrix" values="0 0 0 0 0 0 0 0 0 0 0 0 0 0 0 0 0 0 127 0" result="hardAlpha"/>
<feOffset dx="2" dy="5"/>
<feGaussianBlur stdDeviation="3"/>
<feComposite in2="hardAlpha" operator="out"/>
<feColorMatrix type="matrix" values="0 0 0 0 0.168627 0 0 0 0 0.164706 0 0 0 0 0.290196 0 0 0 0.88 0"/>
<feBlend mode="normal" in2="BackgroundImageFix" result="effect1_dropShadow_4988_26565"/>
<feBlend mode="normal" in="SourceGraphic" in2="effect1_dropShadow_4988_26565" result="shape"/>
</filter>
</defs>
</svg>
