<svg width="922" height="433" viewBox="0 0 922 433" fill="none" xmlns="http://www.w3.org/2000/svg">
<rect x="347.75" y="404.5" width="404" height="574" rx="6" transform="rotate(-90 347.75 404.5)" fill="url(#paint0_linear_5_3)"/>
<rect x="347.75" y="404.5" width="404" height="574" rx="6" transform="rotate(-90 347.75 404.5)" fill="white" fill-opacity="0.29"/>
<g filter="url(#filter0_d_5_3)">
<rect x="329.25" y="421.5" width="404" height="574" rx="6" transform="rotate(-90 329.25 421.5)" fill="white"/>
<rect x="329.75" y="421" width="403" height="573" rx="5.5" transform="rotate(-90 329.75 421)" stroke="url(#paint1_linear_5_3)"/>
</g>
<path d="M458.31 118.5H469.43C477.79 118.5 484.75 111.9 484.75 103.42C484.75 94.94 477.83 88.34 469.43 88.34H458.31V118.5ZM466.15 94.98H467.99C473.03 94.98 476.59 98.02 476.59 103.42C476.59 109.3 472.59 111.86 467.91 111.86H466.15V94.98ZM495.508 97.98H488.228V118.5H495.508V97.98ZM491.868 86.02C489.628 86.02 487.788 87.86 487.788 90.1C487.788 92.34 489.628 94.18 491.868 94.18C494.108 94.18 495.948 92.34 495.948 90.1C495.948 87.86 494.108 86.02 491.868 86.02ZM522.818 97.98H515.538V100.14H515.458C514.018 98.1 511.818 97.3 509.418 97.3C503.138 97.3 498.898 102.42 498.898 108.42C498.898 114.34 503.018 118.9 509.018 118.9C511.738 118.9 513.658 117.98 515.538 116.1V117.06C515.538 120.38 514.778 122.94 510.858 122.94C510.178 122.94 509.418 122.78 508.778 122.46C508.138 122.14 507.618 121.62 507.418 120.9H499.258C499.898 126.3 506.218 128.74 510.938 128.74C518.498 128.74 522.818 125.22 522.818 116.5V97.98ZM511.098 103.46C514.058 103.46 515.778 105.58 515.778 108.1C515.778 110.7 514.058 112.7 511.098 112.7C508.138 112.7 506.418 110.7 506.418 108.1C506.418 105.58 508.138 103.46 511.098 103.46ZM534.649 97.98H527.369V118.5H534.649V97.98ZM531.009 86.02C528.769 86.02 526.929 87.86 526.929 90.1C526.929 92.34 528.769 94.18 531.009 94.18C533.249 94.18 535.089 92.34 535.089 90.1C535.089 87.86 533.249 86.02 531.009 86.02ZM547.399 103.98H551.519V97.98H547.399V91.82H540.119V97.98H537.759V103.98H540.119V118.5H547.399V103.98ZM564.573 103.62C567.533 103.62 569.253 105.74 569.253 108.26C569.253 110.86 567.533 112.86 564.573 112.86C561.613 112.86 559.893 110.86 559.893 108.26C559.893 105.74 561.613 103.62 564.573 103.62ZM576.293 97.98H569.013V99.98C567.493 98.18 565.013 97.3 562.653 97.3C556.573 97.3 552.373 102.34 552.373 108.22C552.373 114.1 556.653 119.18 562.733 119.18C565.133 119.18 567.653 118.26 568.933 116.22H569.013V118.5H576.293V97.98ZM588.399 85.3H581.119V118.5H588.399V85.3ZM622.34 118.5H629.62V85.3H622.34V99.98C620.82 98.18 618.34 97.3 615.98 97.3C609.9 97.3 605.7 102.34 605.7 108.22C605.7 114.1 609.98 119.18 616.06 119.18C618.46 119.18 620.98 118.26 622.26 116.22H622.34V118.5ZM617.9 103.62C620.86 103.62 622.58 105.74 622.58 108.26C622.58 110.86 620.86 112.86 617.9 112.86C614.94 112.86 613.22 110.86 613.22 108.26C613.22 105.74 614.94 103.62 617.9 103.62ZM641.446 97.98H634.166V118.5H641.446V97.98ZM637.806 86.02C635.566 86.02 633.726 87.86 633.726 90.1C633.726 92.34 635.566 94.18 637.806 94.18C640.046 94.18 641.886 92.34 641.886 90.1C641.886 87.86 640.046 86.02 637.806 86.02ZM653.276 97.98H645.996V128.74H653.276V116.54C654.836 118.34 657.276 119.18 659.636 119.18C665.716 119.18 669.916 114.22 669.916 108.3C669.916 102.42 665.676 97.3 659.556 97.3C657.156 97.3 654.676 98.26 653.356 100.3H653.276V97.98ZM657.716 103.62C660.676 103.62 662.396 105.74 662.396 108.26C662.396 110.86 660.676 112.86 657.716 112.86C654.756 112.86 653.036 110.86 653.036 108.26C653.036 105.74 654.756 103.62 657.716 103.62ZM680.782 85.3H673.502V118.5H680.782V85.3ZM696.412 97.3C689.812 97.3 684.052 101.26 684.052 108.26C684.052 115.26 689.852 119.18 696.412 119.18C703.012 119.18 708.772 115.22 708.772 108.26C708.772 101.26 703.012 97.3 696.412 97.3ZM696.412 103.62C699.372 103.62 701.092 105.74 701.092 108.26C701.092 110.86 699.372 112.86 696.412 112.86C693.452 112.86 691.732 110.86 691.732 108.26C691.732 105.74 693.452 103.62 696.412 103.62ZM719.336 97.98H712.056V118.5H719.336V108.7C719.336 106.42 719.336 102.94 722.576 102.94C725.816 102.94 725.816 106.42 725.816 108.7V118.5H733.096V108.7C733.096 106.26 733.216 103.1 736.576 103.1C739.656 103.1 739.576 106.58 739.576 108.7V118.5H746.856V105.42C746.856 100.7 745.056 97.3 739.856 97.3C737.056 97.3 734.296 98.66 732.896 101.22C731.416 98.5 728.856 97.3 725.896 97.3C723.256 97.3 721.136 98.26 719.416 100.54H719.336V97.98ZM762.347 103.62C765.307 103.62 767.027 105.74 767.027 108.26C767.027 110.86 765.307 112.86 762.347 112.86C759.387 112.86 757.667 110.86 757.667 108.26C757.667 105.74 759.387 103.62 762.347 103.62ZM774.067 97.98H766.787V99.98C765.267 98.18 762.787 97.3 760.427 97.3C754.347 97.3 750.147 102.34 750.147 108.22C750.147 114.1 754.427 119.18 760.507 119.18C762.907 119.18 765.427 118.26 766.707 116.22H766.787V118.5H774.067V97.98Z" fill="#353438"/>
<path d="M476.346 239H481.078V217.42H476.346V226.962C475.358 225.792 473.746 225.22 472.212 225.22C468.26 225.22 465.53 228.496 465.53 232.318C465.53 236.14 468.312 239.442 472.264 239.442C473.824 239.442 475.462 238.844 476.294 237.518H476.346V239ZM473.46 229.328C475.384 229.328 476.502 230.706 476.502 232.344C476.502 234.034 475.384 235.334 473.46 235.334C471.536 235.334 470.418 234.034 470.418 232.344C470.418 230.706 471.536 229.328 473.46 229.328ZM488.765 225.662H484.033V239H488.765V225.662ZM486.399 217.888C484.943 217.888 483.747 219.084 483.747 220.54C483.747 221.996 484.943 223.192 486.399 223.192C487.855 223.192 489.051 221.996 489.051 220.54C489.051 219.084 487.855 217.888 486.399 217.888ZM501.914 239H506.646V217.42H501.914V226.962C500.926 225.792 499.314 225.22 497.78 225.22C493.828 225.22 491.098 228.496 491.098 232.318C491.098 236.14 493.88 239.442 497.832 239.442C499.392 239.442 501.03 238.844 501.862 237.518H501.914V239ZM499.028 229.328C500.952 229.328 502.07 230.706 502.07 232.344C502.07 234.034 500.952 235.334 499.028 235.334C497.104 235.334 495.986 234.034 495.986 232.344C495.986 230.706 497.104 229.328 499.028 229.328ZM512.513 233.436C510.823 233.436 509.471 234.788 509.471 236.478C509.471 238.142 510.823 239.52 512.513 239.52C514.203 239.52 515.555 238.142 515.555 236.478C515.555 234.788 514.203 233.436 512.513 233.436ZM512.513 224.674C510.823 224.674 509.471 226.026 509.471 227.716C509.471 229.38 510.823 230.758 512.513 230.758C514.203 230.758 515.555 229.38 515.555 227.716C515.555 226.026 514.203 224.674 512.513 224.674ZM522.335 230.394C522.621 229.016 523.765 228.288 525.143 228.288C526.417 228.288 527.587 229.12 527.821 230.394H522.335ZM532.215 232.63C532.215 228.08 529.537 225.22 524.909 225.22C520.567 225.22 517.525 227.898 517.525 232.344C517.525 236.946 520.827 239.442 525.247 239.442C528.289 239.442 531.279 238.012 532.033 234.866H527.483C526.963 235.75 526.235 236.088 525.221 236.088C523.271 236.088 522.257 235.048 522.257 233.124H532.215V232.63ZM537.736 225.662H532.432L539.426 239H542.442L549.41 225.662H544.106L540.934 232.5L537.736 225.662ZM554.403 230.394C554.689 229.016 555.833 228.288 557.211 228.288C558.485 228.288 559.655 229.12 559.889 230.394H554.403ZM564.283 232.63C564.283 228.08 561.605 225.22 556.977 225.22C552.635 225.22 549.593 227.898 549.593 232.344C549.593 236.946 552.895 239.442 557.315 239.442C560.357 239.442 563.347 238.012 564.101 234.866H559.551C559.031 235.75 558.303 236.088 557.289 236.088C555.339 236.088 554.325 235.048 554.325 233.124H564.283V232.63ZM571.183 225.662H566.451V239H571.183V233.618C571.183 231.33 571.833 229.588 574.459 229.588C575.187 229.588 575.811 229.666 576.461 230.03V225.48H575.551C573.705 225.48 572.145 226.208 571.235 227.846H571.183V225.662ZM581.144 233.436C579.454 233.436 578.102 234.788 578.102 236.478C578.102 238.142 579.454 239.52 581.144 239.52C582.834 239.52 584.186 238.142 584.186 236.478C584.186 234.788 582.834 233.436 581.144 233.436ZM581.144 224.674C579.454 224.674 578.102 226.026 578.102 227.716C578.102 229.38 579.454 230.758 581.144 230.758C582.834 230.758 584.186 229.38 584.186 227.716C584.186 226.026 582.834 224.674 581.144 224.674ZM592.578 223.712V239H597.674V219.396H589.77V223.712H592.578ZM613.6 234.684L616.642 231.85C618.644 230.03 619.814 228.392 619.814 225.584C619.814 221.32 616.356 218.616 612.248 218.616C607.62 218.616 604.76 221.658 604.604 226.156H610.22C610.168 225.87 610.142 225.584 610.142 225.324C610.142 223.998 610.896 222.932 612.274 222.932C613.626 222.932 614.51 224.232 614.51 225.48C614.51 227.274 613.418 229.042 612.274 230.29L604.266 239H620.022V234.684H613.6ZM627.862 225.038C627.836 223.764 628.642 222.776 629.942 222.776C631.086 222.776 631.944 223.556 631.944 224.752C631.944 226.104 631.008 226.91 629.708 226.91H629.188V230.316C629.474 230.238 629.76 230.16 630.072 230.16C631.502 230.16 632.776 231.304 632.776 232.786C632.776 234.372 631.606 235.412 630.046 235.412C628.434 235.412 627.316 234.19 627.316 232.63H622.116C622.064 234.346 623.182 236.374 624.352 237.57C625.938 239.182 627.966 239.78 630.202 239.78C634.102 239.78 637.82 237.57 637.82 233.28C637.82 231.278 636.702 228.886 634.622 228.34C636.052 227.534 636.676 225.87 636.676 224.31C636.676 220.644 633.92 218.616 630.41 218.616C628.408 218.616 626.666 219.188 625.418 220.306C624.17 221.424 623.338 222.984 623.13 225.038H627.862ZM653.721 231.044V219.396H647.039L639.473 231.694V234.944H648.989V239H653.721V234.944H656.087V231.044H653.721ZM648.989 231.044H644.361L648.937 223.504H648.989V231.044ZM671.571 223.712V219.396H661.379L659.663 230.03C660.833 229.484 662.107 229.224 663.407 229.224C665.435 229.224 667.697 230.212 667.697 232.578C667.697 234.294 666.189 235.464 664.577 235.464C662.549 235.464 660.625 234.554 659.117 233.202L658.363 238.012C660.261 239.234 662.523 239.78 664.759 239.78C666.709 239.78 668.919 239.39 670.479 238.142C672.091 236.816 673.001 234.892 673.001 232.838C673.001 228.782 670.063 225.506 666.059 225.818L664.447 225.948L664.785 223.712H671.571ZM679.279 233.436C677.589 233.436 676.237 234.788 676.237 236.478C676.237 238.142 677.589 239.52 679.279 239.52C680.969 239.52 682.321 238.142 682.321 236.478C682.321 234.788 680.969 233.436 679.279 233.436ZM688.191 233.436C686.501 233.436 685.149 234.788 685.149 236.478C685.149 238.142 686.501 239.52 688.191 239.52C689.881 239.52 691.233 238.142 691.233 236.478C691.233 234.788 689.881 233.436 688.191 233.436ZM697.103 233.436C695.413 233.436 694.061 234.788 694.061 236.478C694.061 238.142 695.413 239.52 697.103 239.52C698.793 239.52 700.145 238.142 700.145 236.478C700.145 234.788 698.793 233.436 697.103 233.436ZM710.071 229.328C711.995 229.328 713.113 230.706 713.113 232.344C713.113 234.034 711.995 235.334 710.071 235.334C708.147 235.334 707.029 234.034 707.029 232.344C707.029 230.706 708.147 229.328 710.071 229.328ZM717.689 225.662H712.957V226.962C711.969 225.792 710.357 225.22 708.823 225.22C704.871 225.22 702.141 228.496 702.141 232.318C702.141 236.14 704.923 239.442 708.875 239.442C710.435 239.442 712.073 238.844 712.905 237.518H712.957V239H717.689V225.662ZM720.67 239H725.402V237.518H725.454C726.312 238.844 727.924 239.442 729.484 239.442C733.462 239.442 736.218 236.166 736.218 232.318C736.218 228.496 733.488 225.22 729.536 225.22C728.002 225.22 726.416 225.792 725.402 226.962V217.42H720.67V239ZM728.288 229.328C730.212 229.328 731.33 230.706 731.33 232.344C731.33 234.034 730.212 235.334 728.288 235.334C726.364 235.334 725.246 234.034 725.246 232.344C725.246 230.706 726.364 229.328 728.288 229.328ZM748.168 226C747.232 225.48 746.14 225.22 745.048 225.22C740.862 225.22 737.586 228.184 737.586 232.474C737.586 236.504 740.888 239.442 744.84 239.442C745.984 239.442 747.128 239.208 748.168 238.688V234.684C747.544 235.256 746.634 235.594 745.802 235.594C743.852 235.594 742.474 234.242 742.474 232.318C742.474 230.472 743.904 229.068 745.724 229.068C746.634 229.068 747.466 229.484 748.168 230.004V226ZM761.153 239H765.885V217.42H761.153V226.962C760.165 225.792 758.553 225.22 757.019 225.22C753.067 225.22 750.337 228.496 750.337 232.318C750.337 236.14 753.119 239.442 757.071 239.442C758.631 239.442 760.269 238.844 761.101 237.518H761.153V239ZM758.267 229.328C760.191 229.328 761.309 230.706 761.309 232.344C761.309 234.034 760.191 235.334 758.267 235.334C756.343 235.334 755.225 234.034 755.225 232.344C755.225 230.706 756.343 229.328 758.267 229.328Z" fill="url(#paint2_linear_5_3)"/>
<path d="M476.346 239H481.078V217.42H476.346V226.962C475.358 225.792 473.746 225.22 472.212 225.22C468.26 225.22 465.53 228.496 465.53 232.318C465.53 236.14 468.312 239.442 472.264 239.442C473.824 239.442 475.462 238.844 476.294 237.518H476.346V239ZM473.46 229.328C475.384 229.328 476.502 230.706 476.502 232.344C476.502 234.034 475.384 235.334 473.46 235.334C471.536 235.334 470.418 234.034 470.418 232.344C470.418 230.706 471.536 229.328 473.46 229.328ZM488.765 225.662H484.033V239H488.765V225.662ZM486.399 217.888C484.943 217.888 483.747 219.084 483.747 220.54C483.747 221.996 484.943 223.192 486.399 223.192C487.855 223.192 489.051 221.996 489.051 220.54C489.051 219.084 487.855 217.888 486.399 217.888ZM501.914 239H506.646V217.42H501.914V226.962C500.926 225.792 499.314 225.22 497.78 225.22C493.828 225.22 491.098 228.496 491.098 232.318C491.098 236.14 493.88 239.442 497.832 239.442C499.392 239.442 501.03 238.844 501.862 237.518H501.914V239ZM499.028 229.328C500.952 229.328 502.07 230.706 502.07 232.344C502.07 234.034 500.952 235.334 499.028 235.334C497.104 235.334 495.986 234.034 495.986 232.344C495.986 230.706 497.104 229.328 499.028 229.328ZM512.513 233.436C510.823 233.436 509.471 234.788 509.471 236.478C509.471 238.142 510.823 239.52 512.513 239.52C514.203 239.52 515.555 238.142 515.555 236.478C515.555 234.788 514.203 233.436 512.513 233.436ZM512.513 224.674C510.823 224.674 509.471 226.026 509.471 227.716C509.471 229.38 510.823 230.758 512.513 230.758C514.203 230.758 515.555 229.38 515.555 227.716C515.555 226.026 514.203 224.674 512.513 224.674ZM522.335 230.394C522.621 229.016 523.765 228.288 525.143 228.288C526.417 228.288 527.587 229.12 527.821 230.394H522.335ZM532.215 232.63C532.215 228.08 529.537 225.22 524.909 225.22C520.567 225.22 517.525 227.898 517.525 232.344C517.525 236.946 520.827 239.442 525.247 239.442C528.289 239.442 531.279 238.012 532.033 234.866H527.483C526.963 235.75 526.235 236.088 525.221 236.088C523.271 236.088 522.257 235.048 522.257 233.124H532.215V232.63ZM537.736 225.662H532.432L539.426 239H542.442L549.41 225.662H544.106L540.934 232.5L537.736 225.662ZM554.403 230.394C554.689 229.016 555.833 228.288 557.211 228.288C558.485 228.288 559.655 229.12 559.889 230.394H554.403ZM564.283 232.63C564.283 228.08 561.605 225.22 556.977 225.22C552.635 225.22 549.593 227.898 549.593 232.344C549.593 236.946 552.895 239.442 557.315 239.442C560.357 239.442 563.347 238.012 564.101 234.866H559.551C559.031 235.75 558.303 236.088 557.289 236.088C555.339 236.088 554.325 235.048 554.325 233.124H564.283V232.63ZM571.183 225.662H566.451V239H571.183V233.618C571.183 231.33 571.833 229.588 574.459 229.588C575.187 229.588 575.811 229.666 576.461 230.03V225.48H575.551C573.705 225.48 572.145 226.208 571.235 227.846H571.183V225.662ZM581.144 233.436C579.454 233.436 578.102 234.788 578.102 236.478C578.102 238.142 579.454 239.52 581.144 239.52C582.834 239.52 584.186 238.142 584.186 236.478C584.186 234.788 582.834 233.436 581.144 233.436ZM581.144 224.674C579.454 224.674 578.102 226.026 578.102 227.716C578.102 229.38 579.454 230.758 581.144 230.758C582.834 230.758 584.186 229.38 584.186 227.716C584.186 226.026 582.834 224.674 581.144 224.674ZM592.578 223.712V239H597.674V219.396H589.77V223.712H592.578ZM613.6 234.684L616.642 231.85C618.644 230.03 619.814 228.392 619.814 225.584C619.814 221.32 616.356 218.616 612.248 218.616C607.62 218.616 604.76 221.658 604.604 226.156H610.22C610.168 225.87 610.142 225.584 610.142 225.324C610.142 223.998 610.896 222.932 612.274 222.932C613.626 222.932 614.51 224.232 614.51 225.48C614.51 227.274 613.418 229.042 612.274 230.29L604.266 239H620.022V234.684H613.6ZM627.862 225.038C627.836 223.764 628.642 222.776 629.942 222.776C631.086 222.776 631.944 223.556 631.944 224.752C631.944 226.104 631.008 226.91 629.708 226.91H629.188V230.316C629.474 230.238 629.76 230.16 630.072 230.16C631.502 230.16 632.776 231.304 632.776 232.786C632.776 234.372 631.606 235.412 630.046 235.412C628.434 235.412 627.316 234.19 627.316 232.63H622.116C622.064 234.346 623.182 236.374 624.352 237.57C625.938 239.182 627.966 239.78 630.202 239.78C634.102 239.78 637.82 237.57 637.82 233.28C637.82 231.278 636.702 228.886 634.622 228.34C636.052 227.534 636.676 225.87 636.676 224.31C636.676 220.644 633.92 218.616 630.41 218.616C628.408 218.616 626.666 219.188 625.418 220.306C624.17 221.424 623.338 222.984 623.13 225.038H627.862ZM653.721 231.044V219.396H647.039L639.473 231.694V234.944H648.989V239H653.721V234.944H656.087V231.044H653.721ZM648.989 231.044H644.361L648.937 223.504H648.989V231.044ZM671.571 223.712V219.396H661.379L659.663 230.03C660.833 229.484 662.107 229.224 663.407 229.224C665.435 229.224 667.697 230.212 667.697 232.578C667.697 234.294 666.189 235.464 664.577 235.464C662.549 235.464 660.625 234.554 659.117 233.202L658.363 238.012C660.261 239.234 662.523 239.78 664.759 239.78C666.709 239.78 668.919 239.39 670.479 238.142C672.091 236.816 673.001 234.892 673.001 232.838C673.001 228.782 670.063 225.506 666.059 225.818L664.447 225.948L664.785 223.712H671.571ZM679.279 233.436C677.589 233.436 676.237 234.788 676.237 236.478C676.237 238.142 677.589 239.52 679.279 239.52C680.969 239.52 682.321 238.142 682.321 236.478C682.321 234.788 680.969 233.436 679.279 233.436ZM688.191 233.436C686.501 233.436 685.149 234.788 685.149 236.478C685.149 238.142 686.501 239.52 688.191 239.52C689.881 239.52 691.233 238.142 691.233 236.478C691.233 234.788 689.881 233.436 688.191 233.436ZM697.103 233.436C695.413 233.436 694.061 234.788 694.061 236.478C694.061 238.142 695.413 239.52 697.103 239.52C698.793 239.52 700.145 238.142 700.145 236.478C700.145 234.788 698.793 233.436 697.103 233.436ZM710.071 229.328C711.995 229.328 713.113 230.706 713.113 232.344C713.113 234.034 711.995 235.334 710.071 235.334C708.147 235.334 707.029 234.034 707.029 232.344C707.029 230.706 708.147 229.328 710.071 229.328ZM717.689 225.662H712.957V226.962C711.969 225.792 710.357 225.22 708.823 225.22C704.871 225.22 702.141 228.496 702.141 232.318C702.141 236.14 704.923 239.442 708.875 239.442C710.435 239.442 712.073 238.844 712.905 237.518H712.957V239H717.689V225.662ZM720.67 239H725.402V237.518H725.454C726.312 238.844 727.924 239.442 729.484 239.442C733.462 239.442 736.218 236.166 736.218 232.318C736.218 228.496 733.488 225.22 729.536 225.22C728.002 225.22 726.416 225.792 725.402 226.962V217.42H720.67V239ZM728.288 229.328C730.212 229.328 731.33 230.706 731.33 232.344C731.33 234.034 730.212 235.334 728.288 235.334C726.364 235.334 725.246 234.034 725.246 232.344C725.246 230.706 726.364 229.328 728.288 229.328ZM748.168 226C747.232 225.48 746.14 225.22 745.048 225.22C740.862 225.22 737.586 228.184 737.586 232.474C737.586 236.504 740.888 239.442 744.84 239.442C745.984 239.442 747.128 239.208 748.168 238.688V234.684C747.544 235.256 746.634 235.594 745.802 235.594C743.852 235.594 742.474 234.242 742.474 232.318C742.474 230.472 743.904 229.068 745.724 229.068C746.634 229.068 747.466 229.484 748.168 230.004V226ZM761.153 239H765.885V217.42H761.153V226.962C760.165 225.792 758.553 225.22 757.019 225.22C753.067 225.22 750.337 228.496 750.337 232.318C750.337 236.14 753.119 239.442 757.071 239.442C758.631 239.442 760.269 238.844 761.101 237.518H761.153V239ZM758.267 229.328C760.191 229.328 761.309 230.706 761.309 232.344C761.309 234.034 760.191 235.334 758.267 235.334C756.343 235.334 755.225 234.034 755.225 232.344C755.225 230.706 756.343 229.328 758.267 229.328Z" fill="url(#paint3_linear_5_3)"/>
<path d="M476.346 239H481.078V217.42H476.346V226.962C475.358 225.792 473.746 225.22 472.212 225.22C468.26 225.22 465.53 228.496 465.53 232.318C465.53 236.14 468.312 239.442 472.264 239.442C473.824 239.442 475.462 238.844 476.294 237.518H476.346V239ZM473.46 229.328C475.384 229.328 476.502 230.706 476.502 232.344C476.502 234.034 475.384 235.334 473.46 235.334C471.536 235.334 470.418 234.034 470.418 232.344C470.418 230.706 471.536 229.328 473.46 229.328ZM488.765 225.662H484.033V239H488.765V225.662ZM486.399 217.888C484.943 217.888 483.747 219.084 483.747 220.54C483.747 221.996 484.943 223.192 486.399 223.192C487.855 223.192 489.051 221.996 489.051 220.54C489.051 219.084 487.855 217.888 486.399 217.888ZM501.914 239H506.646V217.42H501.914V226.962C500.926 225.792 499.314 225.22 497.78 225.22C493.828 225.22 491.098 228.496 491.098 232.318C491.098 236.14 493.88 239.442 497.832 239.442C499.392 239.442 501.03 238.844 501.862 237.518H501.914V239ZM499.028 229.328C500.952 229.328 502.07 230.706 502.07 232.344C502.07 234.034 500.952 235.334 499.028 235.334C497.104 235.334 495.986 234.034 495.986 232.344C495.986 230.706 497.104 229.328 499.028 229.328ZM512.513 233.436C510.823 233.436 509.471 234.788 509.471 236.478C509.471 238.142 510.823 239.52 512.513 239.52C514.203 239.52 515.555 238.142 515.555 236.478C515.555 234.788 514.203 233.436 512.513 233.436ZM512.513 224.674C510.823 224.674 509.471 226.026 509.471 227.716C509.471 229.38 510.823 230.758 512.513 230.758C514.203 230.758 515.555 229.38 515.555 227.716C515.555 226.026 514.203 224.674 512.513 224.674ZM522.335 230.394C522.621 229.016 523.765 228.288 525.143 228.288C526.417 228.288 527.587 229.12 527.821 230.394H522.335ZM532.215 232.63C532.215 228.08 529.537 225.22 524.909 225.22C520.567 225.22 517.525 227.898 517.525 232.344C517.525 236.946 520.827 239.442 525.247 239.442C528.289 239.442 531.279 238.012 532.033 234.866H527.483C526.963 235.75 526.235 236.088 525.221 236.088C523.271 236.088 522.257 235.048 522.257 233.124H532.215V232.63ZM537.736 225.662H532.432L539.426 239H542.442L549.41 225.662H544.106L540.934 232.5L537.736 225.662ZM554.403 230.394C554.689 229.016 555.833 228.288 557.211 228.288C558.485 228.288 559.655 229.12 559.889 230.394H554.403ZM564.283 232.63C564.283 228.08 561.605 225.22 556.977 225.22C552.635 225.22 549.593 227.898 549.593 232.344C549.593 236.946 552.895 239.442 557.315 239.442C560.357 239.442 563.347 238.012 564.101 234.866H559.551C559.031 235.75 558.303 236.088 557.289 236.088C555.339 236.088 554.325 235.048 554.325 233.124H564.283V232.63ZM571.183 225.662H566.451V239H571.183V233.618C571.183 231.33 571.833 229.588 574.459 229.588C575.187 229.588 575.811 229.666 576.461 230.03V225.48H575.551C573.705 225.48 572.145 226.208 571.235 227.846H571.183V225.662ZM581.144 233.436C579.454 233.436 578.102 234.788 578.102 236.478C578.102 238.142 579.454 239.52 581.144 239.52C582.834 239.52 584.186 238.142 584.186 236.478C584.186 234.788 582.834 233.436 581.144 233.436ZM581.144 224.674C579.454 224.674 578.102 226.026 578.102 227.716C578.102 229.38 579.454 230.758 581.144 230.758C582.834 230.758 584.186 229.38 584.186 227.716C584.186 226.026 582.834 224.674 581.144 224.674ZM592.578 223.712V239H597.674V219.396H589.77V223.712H592.578ZM613.6 234.684L616.642 231.85C618.644 230.03 619.814 228.392 619.814 225.584C619.814 221.32 616.356 218.616 612.248 218.616C607.62 218.616 604.76 221.658 604.604 226.156H610.22C610.168 225.87 610.142 225.584 610.142 225.324C610.142 223.998 610.896 222.932 612.274 222.932C613.626 222.932 614.51 224.232 614.51 225.48C614.51 227.274 613.418 229.042 612.274 230.29L604.266 239H620.022V234.684H613.6ZM627.862 225.038C627.836 223.764 628.642 222.776 629.942 222.776C631.086 222.776 631.944 223.556 631.944 224.752C631.944 226.104 631.008 226.91 629.708 226.91H629.188V230.316C629.474 230.238 629.76 230.16 630.072 230.16C631.502 230.16 632.776 231.304 632.776 232.786C632.776 234.372 631.606 235.412 630.046 235.412C628.434 235.412 627.316 234.19 627.316 232.63H622.116C622.064 234.346 623.182 236.374 624.352 237.57C625.938 239.182 627.966 239.78 630.202 239.78C634.102 239.78 637.82 237.57 637.82 233.28C637.82 231.278 636.702 228.886 634.622 228.34C636.052 227.534 636.676 225.87 636.676 224.31C636.676 220.644 633.92 218.616 630.41 218.616C628.408 218.616 626.666 219.188 625.418 220.306C624.17 221.424 623.338 222.984 623.13 225.038H627.862ZM653.721 231.044V219.396H647.039L639.473 231.694V234.944H648.989V239H653.721V234.944H656.087V231.044H653.721ZM648.989 231.044H644.361L648.937 223.504H648.989V231.044ZM671.571 223.712V219.396H661.379L659.663 230.03C660.833 229.484 662.107 229.224 663.407 229.224C665.435 229.224 667.697 230.212 667.697 232.578C667.697 234.294 666.189 235.464 664.577 235.464C662.549 235.464 660.625 234.554 659.117 233.202L658.363 238.012C660.261 239.234 662.523 239.78 664.759 239.78C666.709 239.78 668.919 239.39 670.479 238.142C672.091 236.816 673.001 234.892 673.001 232.838C673.001 228.782 670.063 225.506 666.059 225.818L664.447 225.948L664.785 223.712H671.571ZM679.279 233.436C677.589 233.436 676.237 234.788 676.237 236.478C676.237 238.142 677.589 239.52 679.279 239.52C680.969 239.52 682.321 238.142 682.321 236.478C682.321 234.788 680.969 233.436 679.279 233.436ZM688.191 233.436C686.501 233.436 685.149 234.788 685.149 236.478C685.149 238.142 686.501 239.52 688.191 239.52C689.881 239.52 691.233 238.142 691.233 236.478C691.233 234.788 689.881 233.436 688.191 233.436ZM697.103 233.436C695.413 233.436 694.061 234.788 694.061 236.478C694.061 238.142 695.413 239.52 697.103 239.52C698.793 239.52 700.145 238.142 700.145 236.478C700.145 234.788 698.793 233.436 697.103 233.436ZM710.071 229.328C711.995 229.328 713.113 230.706 713.113 232.344C713.113 234.034 711.995 235.334 710.071 235.334C708.147 235.334 707.029 234.034 707.029 232.344C707.029 230.706 708.147 229.328 710.071 229.328ZM717.689 225.662H712.957V226.962C711.969 225.792 710.357 225.22 708.823 225.22C704.871 225.22 702.141 228.496 702.141 232.318C702.141 236.14 704.923 239.442 708.875 239.442C710.435 239.442 712.073 238.844 712.905 237.518H712.957V239H717.689V225.662ZM720.67 239H725.402V237.518H725.454C726.312 238.844 727.924 239.442 729.484 239.442C733.462 239.442 736.218 236.166 736.218 232.318C736.218 228.496 733.488 225.22 729.536 225.22C728.002 225.22 726.416 225.792 725.402 226.962V217.42H720.67V239ZM728.288 229.328C730.212 229.328 731.33 230.706 731.33 232.344C731.33 234.034 730.212 235.334 728.288 235.334C726.364 235.334 725.246 234.034 725.246 232.344C725.246 230.706 726.364 229.328 728.288 229.328ZM748.168 226C747.232 225.48 746.14 225.22 745.048 225.22C740.862 225.22 737.586 228.184 737.586 232.474C737.586 236.504 740.888 239.442 744.84 239.442C745.984 239.442 747.128 239.208 748.168 238.688V234.684C747.544 235.256 746.634 235.594 745.802 235.594C743.852 235.594 742.474 234.242 742.474 232.318C742.474 230.472 743.904 229.068 745.724 229.068C746.634 229.068 747.466 229.484 748.168 230.004V226ZM761.153 239H765.885V217.42H761.153V226.962C760.165 225.792 758.553 225.22 757.019 225.22C753.067 225.22 750.337 228.496 750.337 232.318C750.337 236.14 753.119 239.442 757.071 239.442C758.631 239.442 760.269 238.844 761.101 237.518H761.153V239ZM758.267 229.328C760.191 229.328 761.309 230.706 761.309 232.344C761.309 234.034 760.191 235.334 758.267 235.334C756.343 235.334 755.225 234.034 755.225 232.344C755.225 230.706 756.343 229.328 758.267 229.328Z" fill="url(#paint4_linear_5_3)"/>
<path d="M464.75 241.6H767.289V242.9H464.75V241.6Z" fill="url(#paint5_linear_5_3)"/>
<path d="M464.75 241.6H767.289V242.9H464.75V241.6Z" fill="url(#paint6_linear_5_3)"/>
<path d="M464.75 241.6H767.289V242.9H464.75V241.6Z" fill="url(#paint7_linear_5_3)"/>
<path d="M574.45 166.67H570.53V181.75H574.45V166.67ZM584.934 171.81C583.874 171.33 582.714 171.15 581.554 171.15C579.314 171.15 577.034 172.27 577.034 174.79C577.034 176.63 578.174 177.19 579.314 177.49C580.454 177.79 581.594 177.83 581.594 178.63C581.594 179.19 580.914 179.41 580.454 179.41C579.554 179.41 578.314 178.89 577.574 178.37L576.254 180.91C577.494 181.67 578.934 182.09 580.394 182.09C582.774 182.09 585.234 180.97 585.234 178.27C585.234 176.37 583.954 175.57 582.254 175.23C581.754 175.13 580.614 175.03 580.614 174.33C580.614 173.81 581.334 173.63 581.754 173.63C582.374 173.63 583.154 173.83 583.714 174.13L584.934 171.81ZM595.188 171.81C594.128 171.33 592.968 171.15 591.808 171.15C589.568 171.15 587.288 172.27 587.288 174.79C587.288 176.63 588.428 177.19 589.568 177.49C590.708 177.79 591.848 177.83 591.848 178.63C591.848 179.19 591.168 179.41 590.708 179.41C589.808 179.41 588.568 178.89 587.828 178.37L586.508 180.91C587.748 181.67 589.188 182.09 590.648 182.09C593.028 182.09 595.488 180.97 595.488 178.27C595.488 176.37 594.208 175.57 592.508 175.23C592.008 175.13 590.868 175.03 590.868 174.33C590.868 173.81 591.588 173.63 592.008 173.63C592.628 173.63 593.408 173.83 593.968 174.13L595.188 171.81ZM597.382 171.49V177.67C597.382 181.05 599.762 182.09 602.842 182.09C605.922 182.09 608.302 181.05 608.302 177.67V171.49H604.662V176.97C604.662 178.27 604.342 179.19 602.842 179.19C601.342 179.19 601.022 178.27 601.022 176.97V171.49H597.382ZM613.566 175.13C613.786 174.07 614.666 173.51 615.726 173.51C616.706 173.51 617.606 174.15 617.786 175.13H613.566ZM621.166 176.85C621.166 173.35 619.106 171.15 615.546 171.15C612.206 171.15 609.866 173.21 609.866 176.63C609.866 180.17 612.406 182.09 615.806 182.09C618.146 182.09 620.446 180.99 621.026 178.57H617.526C617.126 179.25 616.566 179.51 615.786 179.51C614.286 179.51 613.506 178.71 613.506 177.23H621.166V176.85ZM630.553 181.75H634.193V165.15H630.553V172.49C629.793 171.59 628.553 171.15 627.373 171.15C624.333 171.15 622.233 173.67 622.233 176.61C622.233 179.55 624.373 182.09 627.413 182.09C628.613 182.09 629.873 181.63 630.513 180.61H630.553V181.75ZM628.333 174.31C629.813 174.31 630.673 175.37 630.673 176.63C630.673 177.93 629.813 178.93 628.333 178.93C626.853 178.93 625.993 177.93 625.993 176.63C625.993 175.37 626.853 174.31 628.333 174.31ZM647.301 174.49H649.361V171.49H647.301V168.41H643.661V171.49H642.481V174.49H643.661V181.75H647.301V174.49ZM655.948 171.15C652.648 171.15 649.768 173.13 649.768 176.63C649.768 180.13 652.668 182.09 655.948 182.09C659.248 182.09 662.128 180.11 662.128 176.63C662.128 173.13 659.248 171.15 655.948 171.15ZM655.948 174.31C657.428 174.31 658.288 175.37 658.288 176.63C658.288 177.93 657.428 178.93 655.948 178.93C654.468 178.93 653.608 177.93 653.608 176.63C653.608 175.37 654.468 174.31 655.948 174.31Z" fill="#353438"/>
<rect x="347.75" y="34.25" width="537" height="370.5" rx="5" stroke="url(#paint8_linear_5_3)" stroke-width="2"/>
<rect x="347.75" y="34.25" width="537" height="370.5" rx="5" stroke="url(#paint9_linear_5_3)" stroke-width="2"/>
<rect x="347.75" y="34.25" width="537" height="370.5" rx="5" stroke="url(#paint10_linear_5_3)" stroke-width="2"/>
<path d="M281.75 130L282.449 129.285L282.157 129H281.75V130ZM438.917 233.5C438.917 236.446 441.304 238.833 444.25 238.833C447.196 238.833 449.583 236.446 449.583 233.5C449.583 230.554 447.196 228.167 444.25 228.167C441.304 228.167 438.917 230.554 438.917 233.5ZM387.75 233.5L387.051 234.215L387.343 234.5H387.75V233.5ZM0.75 131H281.75V129H0.75V131ZM281.051 130.715L387.051 234.215L388.449 232.785L282.449 129.285L281.051 130.715ZM387.75 234.5H444.25V232.5H387.75V234.5Z" fill="url(#paint11_linear_5_3)"/>
<path d="M796.402 334.092C797.915 334.092 799.366 334.693 800.436 335.763C801.506 336.833 802.107 338.284 802.107 339.797V353.743C802.107 355.257 801.506 356.708 800.436 357.778C799.366 358.848 797.915 359.449 796.402 359.449H782.455C780.942 359.449 779.491 358.848 778.421 357.778C777.351 356.708 776.75 355.257 776.75 353.743V339.797C776.75 338.284 777.351 336.833 778.421 335.763C779.491 334.693 780.942 334.092 782.455 334.092H796.402ZM815.635 334.092V342.543H824.084V350.997H815.635V359.446H807.179V350.995H815.63V342.543H807.179V334.092H815.633H815.635ZM832.536 350.995V359.449H824.084V350.997H832.536V350.995ZM796.402 337.895H782.455C781.951 337.895 781.467 338.096 781.111 338.452C780.754 338.809 780.554 339.293 780.554 339.797V353.743C780.554 354.793 781.406 355.645 782.455 355.645H796.402C796.906 355.645 797.39 355.445 797.747 355.088C798.103 354.732 798.304 354.248 798.304 353.743V339.797C798.304 339.293 798.103 338.809 797.747 338.452C797.39 338.096 796.906 337.895 796.402 337.895ZM793.232 342.967V350.574H785.625V342.967H793.232ZM832.536 334.092V342.543H824.084V334.092H832.536ZM796.402 303.663C797.915 303.663 799.366 304.264 800.436 305.334C801.506 306.404 802.107 307.855 802.107 309.368V323.315C802.107 324.828 801.506 326.279 800.436 327.349C799.366 328.419 797.915 329.02 796.402 329.02H782.455C780.942 329.02 779.491 328.419 778.421 327.349C777.351 326.279 776.75 324.828 776.75 323.315V309.368C776.75 307.855 777.351 306.404 778.421 305.334C779.491 304.264 780.942 303.663 782.455 303.663H796.402ZM826.83 303.663C828.344 303.663 829.795 304.264 830.865 305.334C831.935 306.404 832.536 307.855 832.536 309.368V323.315C832.536 324.828 831.935 326.279 830.865 327.349C829.795 328.419 828.344 329.02 826.83 329.02H812.884C811.371 329.02 809.92 328.419 808.85 327.349C807.78 326.279 807.179 324.828 807.179 323.315V309.368C807.179 307.855 807.78 306.404 808.85 305.334C809.92 304.264 811.371 303.663 812.884 303.663H826.83ZM796.402 307.467H782.455C781.951 307.467 781.467 307.667 781.111 308.024C780.754 308.38 780.554 308.864 780.554 309.368V323.315C780.554 324.365 781.406 325.217 782.455 325.217H796.402C796.906 325.217 797.39 325.016 797.747 324.66C798.103 324.303 798.304 323.819 798.304 323.315V309.368C798.304 308.864 798.103 308.38 797.747 308.024C797.39 307.667 796.906 307.467 796.402 307.467ZM826.83 307.467H812.884C812.38 307.467 811.896 307.667 811.539 308.024C811.183 308.38 810.982 308.864 810.982 309.368V323.315C810.982 324.365 811.834 325.217 812.884 325.217H826.83C827.335 325.217 827.818 325.016 828.175 324.66C828.532 324.303 828.732 323.819 828.732 323.315V309.368C828.732 308.864 828.532 308.38 828.175 308.024C827.818 307.667 827.335 307.467 826.83 307.467ZM793.232 312.538V320.145H785.625V312.538H793.232ZM823.661 312.538V320.145H816.054V312.538H823.661Z" fill="url(#paint12_linear_5_3)"/>
<path d="M796.402 334.092C797.915 334.092 799.366 334.693 800.436 335.763C801.506 336.833 802.107 338.284 802.107 339.797V353.743C802.107 355.257 801.506 356.708 800.436 357.778C799.366 358.848 797.915 359.449 796.402 359.449H782.455C780.942 359.449 779.491 358.848 778.421 357.778C777.351 356.708 776.75 355.257 776.75 353.743V339.797C776.75 338.284 777.351 336.833 778.421 335.763C779.491 334.693 780.942 334.092 782.455 334.092H796.402ZM815.635 334.092V342.543H824.084V350.997H815.635V359.446H807.179V350.995H815.63V342.543H807.179V334.092H815.633H815.635ZM832.536 350.995V359.449H824.084V350.997H832.536V350.995ZM796.402 337.895H782.455C781.951 337.895 781.467 338.096 781.111 338.452C780.754 338.809 780.554 339.293 780.554 339.797V353.743C780.554 354.793 781.406 355.645 782.455 355.645H796.402C796.906 355.645 797.39 355.445 797.747 355.088C798.103 354.732 798.304 354.248 798.304 353.743V339.797C798.304 339.293 798.103 338.809 797.747 338.452C797.39 338.096 796.906 337.895 796.402 337.895ZM793.232 342.967V350.574H785.625V342.967H793.232ZM832.536 334.092V342.543H824.084V334.092H832.536ZM796.402 303.663C797.915 303.663 799.366 304.264 800.436 305.334C801.506 306.404 802.107 307.855 802.107 309.368V323.315C802.107 324.828 801.506 326.279 800.436 327.349C799.366 328.419 797.915 329.02 796.402 329.02H782.455C780.942 329.02 779.491 328.419 778.421 327.349C777.351 326.279 776.75 324.828 776.75 323.315V309.368C776.75 307.855 777.351 306.404 778.421 305.334C779.491 304.264 780.942 303.663 782.455 303.663H796.402ZM826.83 303.663C828.344 303.663 829.795 304.264 830.865 305.334C831.935 306.404 832.536 307.855 832.536 309.368V323.315C832.536 324.828 831.935 326.279 830.865 327.349C829.795 328.419 828.344 329.02 826.83 329.02H812.884C811.371 329.02 809.92 328.419 808.85 327.349C807.78 326.279 807.179 324.828 807.179 323.315V309.368C807.179 307.855 807.78 306.404 808.85 305.334C809.92 304.264 811.371 303.663 812.884 303.663H826.83ZM796.402 307.467H782.455C781.951 307.467 781.467 307.667 781.111 308.024C780.754 308.38 780.554 308.864 780.554 309.368V323.315C780.554 324.365 781.406 325.217 782.455 325.217H796.402C796.906 325.217 797.39 325.016 797.747 324.66C798.103 324.303 798.304 323.819 798.304 323.315V309.368C798.304 308.864 798.103 308.38 797.747 308.024C797.39 307.667 796.906 307.467 796.402 307.467ZM826.83 307.467H812.884C812.38 307.467 811.896 307.667 811.539 308.024C811.183 308.38 810.982 308.864 810.982 309.368V323.315C810.982 324.365 811.834 325.217 812.884 325.217H826.83C827.335 325.217 827.818 325.016 828.175 324.66C828.532 324.303 828.732 323.819 828.732 323.315V309.368C828.732 308.864 828.532 308.38 828.175 308.024C827.818 307.667 827.335 307.467 826.83 307.467ZM793.232 312.538V320.145H785.625V312.538H793.232ZM823.661 312.538V320.145H816.054V312.538H823.661Z" fill="url(#paint13_linear_5_3)"/>
<path d="M796.402 334.092C797.915 334.092 799.366 334.693 800.436 335.763C801.506 336.833 802.107 338.284 802.107 339.797V353.743C802.107 355.257 801.506 356.708 800.436 357.778C799.366 358.848 797.915 359.449 796.402 359.449H782.455C780.942 359.449 779.491 358.848 778.421 357.778C777.351 356.708 776.75 355.257 776.75 353.743V339.797C776.75 338.284 777.351 336.833 778.421 335.763C779.491 334.693 780.942 334.092 782.455 334.092H796.402ZM815.635 334.092V342.543H824.084V350.997H815.635V359.446H807.179V350.995H815.63V342.543H807.179V334.092H815.633H815.635ZM832.536 350.995V359.449H824.084V350.997H832.536V350.995ZM796.402 337.895H782.455C781.951 337.895 781.467 338.096 781.111 338.452C780.754 338.809 780.554 339.293 780.554 339.797V353.743C780.554 354.793 781.406 355.645 782.455 355.645H796.402C796.906 355.645 797.39 355.445 797.747 355.088C798.103 354.732 798.304 354.248 798.304 353.743V339.797C798.304 339.293 798.103 338.809 797.747 338.452C797.39 338.096 796.906 337.895 796.402 337.895ZM793.232 342.967V350.574H785.625V342.967H793.232ZM832.536 334.092V342.543H824.084V334.092H832.536ZM796.402 303.663C797.915 303.663 799.366 304.264 800.436 305.334C801.506 306.404 802.107 307.855 802.107 309.368V323.315C802.107 324.828 801.506 326.279 800.436 327.349C799.366 328.419 797.915 329.02 796.402 329.02H782.455C780.942 329.02 779.491 328.419 778.421 327.349C777.351 326.279 776.75 324.828 776.75 323.315V309.368C776.75 307.855 777.351 306.404 778.421 305.334C779.491 304.264 780.942 303.663 782.455 303.663H796.402ZM826.83 303.663C828.344 303.663 829.795 304.264 830.865 305.334C831.935 306.404 832.536 307.855 832.536 309.368V323.315C832.536 324.828 831.935 326.279 830.865 327.349C829.795 328.419 828.344 329.02 826.83 329.02H812.884C811.371 329.02 809.92 328.419 808.85 327.349C807.78 326.279 807.179 324.828 807.179 323.315V309.368C807.179 307.855 807.78 306.404 808.85 305.334C809.92 304.264 811.371 303.663 812.884 303.663H826.83ZM796.402 307.467H782.455C781.951 307.467 781.467 307.667 781.111 308.024C780.754 308.38 780.554 308.864 780.554 309.368V323.315C780.554 324.365 781.406 325.217 782.455 325.217H796.402C796.906 325.217 797.39 325.016 797.747 324.66C798.103 324.303 798.304 323.819 798.304 323.315V309.368C798.304 308.864 798.103 308.38 797.747 308.024C797.39 307.667 796.906 307.467 796.402 307.467ZM826.83 307.467H812.884C812.38 307.467 811.896 307.667 811.539 308.024C811.183 308.38 810.982 308.864 810.982 309.368V323.315C810.982 324.365 811.834 325.217 812.884 325.217H826.83C827.335 325.217 827.818 325.016 828.175 324.66C828.532 324.303 828.732 323.819 828.732 323.315V309.368C828.732 308.864 828.532 308.38 828.175 308.024C827.818 307.667 827.335 307.467 826.83 307.467ZM793.232 312.538V320.145H785.625V312.538H793.232ZM823.661 312.538V320.145H816.054V312.538H823.661Z" fill="url(#paint14_linear_5_3)"/>
<path d="M729.417 330C729.417 332.946 731.804 335.333 734.75 335.333C737.696 335.333 740.083 332.946 740.083 330C740.083 327.054 737.696 324.667 734.75 324.667C731.804 324.667 729.417 327.054 729.417 330ZM564.468 354.5V355.5H564.721L564.944 355.38L564.468 354.5ZM609.75 330V329H609.497L609.274 329.12L609.75 330ZM278.75 355.5H386.186V353.5H278.75V355.5ZM0.25 355.5H71.75V353.5H0.25V355.5ZM71.75 355.5H278.75V353.5H71.75V355.5ZM386.186 355.5H564.468V353.5H386.186V355.5ZM564.944 355.38L610.226 330.88L609.274 329.12L563.992 353.62L564.944 355.38ZM609.75 331H734.75V329H609.75V331Z" fill="url(#paint15_linear_5_3)"/>
<defs>
<filter id="filter0_d_5_3" x="325.25" y="16.5" width="586" height="416" filterUnits="userSpaceOnUse" color-interpolation-filters="sRGB">
<feFlood flood-opacity="0" result="BackgroundImageFix"/>
<feColorMatrix in="SourceAlpha" type="matrix" values="0 0 0 0 0 0 0 0 0 0 0 0 0 0 0 0 0 0 127 0" result="hardAlpha"/>
<feOffset dx="2" dy="5"/>
<feGaussianBlur stdDeviation="3"/>
<feComposite in2="hardAlpha" operator="out"/>
<feColorMatrix type="matrix" values="0 0 0 0 0.168627 0 0 0 0 0.164706 0 0 0 0 0.290196 0 0 0 0.88 0"/>
<feBlend mode="normal" in2="BackgroundImageFix" result="effect1_dropShadow_5_3"/>
<feBlend mode="normal" in="SourceGraphic" in2="effect1_dropShadow_5_3" result="shape"/>
</filter>
<linearGradient id="paint0_linear_5_3" x1="465.418" y1="404.5" x2="934.143" y2="555.416" gradientUnits="userSpaceOnUse">
<stop stop-color="#0BCDED"/>
<stop offset="1" stop-color="#5576E7"/>
</linearGradient>
<linearGradient id="paint1_linear_5_3" x1="286.809" y1="431.492" x2="816.07" y2="446.097" gradientUnits="userSpaceOnUse">
<stop stop-color="#8F5AE0"/>
<stop offset="1" stop-color="#37B9C6"/>
</linearGradient>
<linearGradient id="paint2_linear_5_3" x1="745.657" y1="311.352" x2="454.181" y2="166.508" gradientUnits="userSpaceOnUse">
<stop stop-color="#5653DC"/>
<stop offset="1" stop-color="#48BBF4"/>
</linearGradient>
<linearGradient id="paint3_linear_5_3" x1="553.001" y1="212" x2="581.464" y2="313.158" gradientUnits="userSpaceOnUse">
<stop stop-color="#0BCDED"/>
<stop offset="1" stop-color="#5576E7"/>
</linearGradient>
<linearGradient id="paint4_linear_5_3" x1="534.219" y1="279.576" x2="568.091" y2="190.068" gradientUnits="userSpaceOnUse">
<stop stop-color="#8C63E5" stop-opacity="0.51"/>
<stop offset="1" stop-color="#DA46FF" stop-opacity="0.64"/>
</linearGradient>
<linearGradient id="paint5_linear_5_3" x1="745.657" y1="311.352" x2="454.181" y2="166.508" gradientUnits="userSpaceOnUse">
<stop stop-color="#5653DC"/>
<stop offset="1" stop-color="#48BBF4"/>
</linearGradient>
<linearGradient id="paint6_linear_5_3" x1="553.001" y1="212" x2="581.464" y2="313.158" gradientUnits="userSpaceOnUse">
<stop stop-color="#0BCDED"/>
<stop offset="1" stop-color="#5576E7"/>
</linearGradient>
<linearGradient id="paint7_linear_5_3" x1="534.219" y1="279.576" x2="568.091" y2="190.068" gradientUnits="userSpaceOnUse">
<stop stop-color="#8C63E5" stop-opacity="0.51"/>
<stop offset="1" stop-color="#DA46FF" stop-opacity="0.64"/>
</linearGradient>
<linearGradient id="paint8_linear_5_3" x1="846.448" y1="982.185" x2="205.402" y2="922.855" gradientUnits="userSpaceOnUse">
<stop stop-color="#5653DC"/>
<stop offset="1" stop-color="#48BBF4"/>
</linearGradient>
<linearGradient id="paint9_linear_5_3" x1="503.738" y1="33.25" x2="983.647" y2="350.915" gradientUnits="userSpaceOnUse">
<stop stop-color="#0BCDED"/>
<stop offset="1" stop-color="#5576E7"/>
</linearGradient>
<linearGradient id="paint10_linear_5_3" x1="470.327" y1="678.692" x2="857.547" y2="488.116" gradientUnits="userSpaceOnUse">
<stop stop-color="#8C63E5" stop-opacity="0.51"/>
<stop offset="1" stop-color="#DA46FF" stop-opacity="0.64"/>
</linearGradient>
<linearGradient id="paint11_linear_5_3" x1="129.923" y1="130" x2="247.198" y2="359.884" gradientUnits="userSpaceOnUse">
<stop stop-color="#0BCDED"/>
<stop offset="1" stop-color="#5576E7"/>
</linearGradient>
<linearGradient id="paint12_linear_5_3" x1="828.468" y1="445.776" x2="761.825" y2="441.513" gradientUnits="userSpaceOnUse">
<stop stop-color="#5653DC"/>
<stop offset="1" stop-color="#48BBF4"/>
</linearGradient>
<linearGradient id="paint13_linear_5_3" x1="792.998" y1="303.663" x2="852.069" y2="330.685" gradientUnits="userSpaceOnUse">
<stop stop-color="#0BCDED"/>
<stop offset="1" stop-color="#5576E7"/>
</linearGradient>
<linearGradient id="paint14_linear_5_3" x1="789.54" y1="400.325" x2="834.162" y2="385.147" gradientUnits="userSpaceOnUse">
<stop stop-color="#8C63E5" stop-opacity="0.51"/>
<stop offset="1" stop-color="#DA46FF" stop-opacity="0.64"/>
</linearGradient>
<linearGradient id="paint15_linear_5_3" x1="214.179" y1="330" x2="219.153" y2="398.216" gradientUnits="userSpaceOnUse">
<stop stop-color="#0BCDED"/>
<stop offset="1" stop-color="#5576E7"/>
</linearGradient>
</defs>
</svg>
