<svg width="105" height="73" viewBox="0 0 105 73" fill="none" xmlns="http://www.w3.org/2000/svg">
<g filter="url(#filter0_d_4988_26566)">
<path fill-rule="evenodd" clip-rule="evenodd" d="M60.0376 11.6318C61.7494 11.6318 63.0376 10.2793 63.0376 8.73267C63.0376 7.18601 61.7494 5.8335 60.0376 5.8335C58.3258 5.8335 57.0376 7.18601 57.0376 8.73267C57.0376 10.2793 58.3258 11.6318 60.0376 11.6318ZM60.0376 15.6318C63.9036 15.6318 67.0376 12.543 67.0376 8.73267C67.0376 4.92236 63.9036 1.8335 60.0376 1.8335C56.8773 1.8335 54.2061 3.89761 53.3363 6.7326H40.5376H34.0376C32.3807 6.7326 31.0376 8.07574 31.0376 9.7326V14.6462C31.0376 15.7507 31.933 16.6462 33.0376 16.6462C34.1422 16.6462 35.0376 15.7507 35.0376 14.6462V10.7326H38.5376V14.6462C38.5376 15.7507 39.433 16.6462 40.5376 16.6462C41.6422 16.6462 42.5376 15.7507 42.5376 14.6462V10.7326H53.3362C54.2061 13.5677 56.8772 15.6318 60.0376 15.6318ZM19.3149 52.1398C19.3149 53.2379 20.2155 54.1332 21.3265 54.1395C22.4376 54.1458 23.3383 53.2608 23.3383 52.1627L23.3385 49.0447L26.0874 50.7912C27.0196 51.3834 28.2556 51.1076 28.8482 50.1753C29.4408 49.2429 29.1655 48.007 28.2334 47.4147L25.2034 45.4897L27.9346 43.7545C28.8667 43.1623 29.142 41.9264 28.5494 40.994C27.9568 40.0616 26.7208 39.7859 25.7886 40.3781L23.3388 41.9345L23.339 38.8571C23.339 37.7591 22.4384 36.8638 21.3274 36.8575C20.2164 36.8512 19.3156 37.7362 19.3156 38.8342L19.3154 41.749L16.8864 40.2058C15.9543 39.6136 14.7182 39.8893 14.1256 40.8217C13.533 41.7541 13.8083 42.99 14.7405 43.5823L17.7429 45.4897L14.4417 47.587C13.5095 48.1792 13.2343 49.4152 13.8268 50.3476C14.4194 51.2799 15.6555 51.5557 16.5876 50.9635L19.3151 49.2307L19.3149 52.1398ZM61.6073 54.1395C60.4963 54.1332 59.5956 53.2379 59.5957 52.1398L59.5958 49.2307L56.8684 50.9635C55.9362 51.5557 54.7002 51.2799 54.1076 50.3476C53.515 49.4152 53.7903 48.1792 54.7225 47.587L58.0236 45.4897L55.0212 43.5823C54.0891 42.99 53.8138 41.7541 54.4064 40.8217C54.999 39.8893 56.235 39.6136 57.1672 40.2058L59.5962 41.749L59.5963 38.8342C59.5964 37.7362 60.4971 36.8512 61.6081 36.8575C62.7192 36.8638 63.6198 37.7591 63.6197 38.8571L63.6196 41.9345L66.0694 40.3781C67.0015 39.7859 68.2376 40.0616 68.8302 40.994C69.4228 41.9264 69.1475 43.1623 68.2153 43.7545L65.4841 45.4897L68.5141 47.4147C69.4463 48.007 69.7216 49.2429 69.129 50.1753C68.5364 51.1076 67.3003 51.3834 66.3682 50.7912L63.6192 49.0447L63.6191 52.1627C63.619 53.2608 62.7183 54.1458 61.6073 54.1395ZM39.4553 52.1398C39.4552 53.2379 40.3559 54.1332 41.4669 54.1395C42.5779 54.1458 43.4786 53.2608 43.4787 52.1627L43.4789 49.0447L46.2278 50.7912C47.1599 51.3834 48.396 51.1076 48.9886 50.1753C49.5812 49.2429 49.3059 48.007 48.3737 47.4147L45.3438 45.4897L48.075 43.7545C49.0071 43.1623 49.2824 41.9264 48.6898 40.994C48.0972 40.0616 46.8612 39.7859 45.929 40.3781L43.4792 41.9345L43.4794 38.8571C43.4794 37.7591 42.5788 36.8638 41.4678 36.8575C40.3567 36.8512 39.456 37.7362 39.456 38.8342L39.4558 41.749L37.0268 40.2058C36.0947 39.6136 34.8586 39.8893 34.266 40.8217C33.6734 41.7541 33.9487 42.99 34.8809 43.5823L37.8832 45.4897L34.5821 47.587C33.6499 48.1792 33.3746 49.4152 33.9672 50.3476C34.5598 51.2799 35.7959 51.5557 36.728 50.9635L39.4555 49.2307L39.4553 52.1398ZM81.7477 54.1395C80.6366 54.1332 79.736 53.2379 79.7361 52.1398L79.7362 49.2307L77.0088 50.9635C76.0766 51.5557 74.8406 51.2799 74.248 50.3476C73.6554 49.4152 73.9307 48.1792 74.8628 47.587L78.164 45.4897L75.1616 43.5823C74.2295 42.99 73.9542 41.7541 74.5468 40.8217C75.1394 39.8893 76.3754 39.6136 77.3076 40.2058L79.7366 41.749L79.7367 38.8342C79.7368 37.7362 80.6375 36.8512 81.7485 36.8575C82.8596 36.8638 83.7602 37.7591 83.7601 38.8571L83.76 41.9345L86.2098 40.3781C87.1419 39.7859 88.378 40.0616 88.9706 40.994C89.5632 41.9264 89.2879 43.1623 88.3557 43.7545L85.6245 45.4897L88.6545 47.4147C89.5867 48.007 89.8619 49.2429 89.2693 50.1753C88.6768 51.1076 87.4407 51.3834 86.5085 50.7912L83.7596 49.0447L83.7595 52.1627C83.7594 53.2608 82.8587 54.1458 81.7477 54.1395ZM12.7876 33.4825H88.2876C90.4967 33.4825 92.2876 35.2734 92.2876 37.4825V53.5144C92.2876 55.7235 90.4967 57.5144 88.2876 57.5144H12.7876C10.5785 57.5144 8.7876 55.7235 8.7876 53.5144V37.4825C8.7876 35.2734 10.5785 33.4825 12.7876 33.4825ZM4.7876 37.4825C4.7876 33.0643 8.36932 29.4825 12.7876 29.4825H88.2876C92.7059 29.4825 96.2876 33.0643 96.2876 37.4825V53.5144C96.2876 57.9327 92.7059 61.5144 88.2876 61.5144H12.7876C8.36932 61.5144 4.7876 57.9327 4.7876 53.5144V37.4825Z" fill="white"/>
</g>
<defs>
<filter id="filter0_d_4988_26566" x="0.787598" y="0.833496" width="103.5" height="71.6809" filterUnits="userSpaceOnUse" color-interpolation-filters="sRGB">
<feFlood flood-opacity="0" result="BackgroundImageFix"/>
<feColorMatrix in="SourceAlpha" type="matrix" values="0 0 0 0 0 0 0 0 0 0 0 0 0 0 0 0 0 0 127 0" result="hardAlpha"/>
<feOffset dx="2" dy="5"/>
<feGaussianBlur stdDeviation="3"/>
<feComposite in2="hardAlpha" operator="out"/>
<feColorMatrix type="matrix" values="0 0 0 0 0.168627 0 0 0 0 0.164706 0 0 0 0 0.290196 0 0 0 0.88 0"/>
<feBlend mode="normal" in2="BackgroundImageFix" result="effect1_dropShadow_4988_26566"/>
<feBlend mode="normal" in="SourceGraphic" in2="effect1_dropShadow_4988_26566" result="shape"/>
</filter>
</defs>
</svg>
