<svg width="1680" height="5189" viewBox="0 0 1680 5189" fill="none" xmlns="http://www.w3.org/2000/svg">
<g opacity="0.5" filter="url(#filter0_f_7_55)">
<path d="M897.595 4914.04C1649.99 4791.45 2384.75 4140.63 2436.63 3582.18C2468.78 3236.04 1959.91 3279.15 1920.14 2952.15C1863.55 2517.1 2668.15 2109.29 2577.25 1685.77C2466.18 1158.42 1746.88 683.046 1062.57 1176.61C536.631 1546.83 583.488 1943.19 207.336 2390.44C-374.049 3081.71 -1683.48 3428.66 -1547.05 4035.15C-1448.37 4478.32 -797.886 4341.3 -302.803 4516.75C158.341 4680.17 127.842 5039.46 897.595 4914.04Z" stroke="url(#paint0_linear_7_55)" stroke-opacity="0.5" stroke-width="3"/>
<path d="M891.279 4908.6C1637.98 4786.96 2367.19 4140.94 2418.69 3586.57C2450.61 3242.97 1921.6 3301.31 1873.11 2976.8C1800.74 2539.39 2666.19 2116.98 2569.61 1685.99C2456.53 1163.8 1757.89 700.403 1073.77 1179.59C526.202 1545.8 586.063 1984.13 212.747 2428.08C-364.253 3114.27 -1661.13 3426.99 -1534.35 4027.81C-1443.02 4469.87 -791.355 4339.93 -300.024 4514.13C157.626 4676.39 127.349 5033.05 891.279 4908.6Z" stroke="url(#paint1_linear_7_55)" stroke-opacity="0.5" stroke-width="3"/>
<path d="M884.947 4903.13C1625.96 4782.45 2349.61 4141.25 2400.71 3590.97C2432.39 3249.9 1883.22 3323.47 1826.01 3001.45C1737.82 2561.68 2664.12 2124.69 2561.85 1686.25C2446.73 1169.2 1768.72 717.79 1084.81 1182.58C515.609 1544.77 588.491 2025.06 218.024 2465.72C-354.573 3146.79 -1638.9 3425.26 -1521.75 4020.41C-1437.74 4461.35 -784.895 4338.51 -297.298 4511.47C156.872 4672.57 126.832 5026.6 884.947 4903.13Z" stroke="url(#paint2_linear_7_55)" stroke-opacity="0.5" stroke-width="3"/>
<path d="M878.623 4897.66C1613.95 4777.93 2332.05 4141.56 2382.74 3595.36C2414.17 3256.83 1844.85 3345.62 1778.92 3026.1C1674.91 2583.97 2662.07 2132.4 2554.1 1686.49C2436.94 1174.61 1779.56 735.173 1095.85 1185.57C505.023 1543.73 590.926 2065.99 223.308 2503.34C-344.885 3179.32 -1616.67 3423.53 -1509.14 4013C-1432.46 4452.82 -778.427 4337.08 -294.566 4508.8C156.125 4668.74 126.322 5020.15 878.623 4897.66Z" stroke="url(#paint3_linear_7_55)" stroke-opacity="0.5" stroke-width="3"/>
<path d="M872.297 4892.18C1601.95 4773.42 2314.48 4141.86 2364.77 3599.75C2395.94 3263.75 1806.48 3367.77 1731.82 3050.74C1612 2606.25 2660.01 2140.11 2546.34 1686.74C2427.16 1180.01 1790.4 752.554 1106.88 1188.55C494.436 1542.69 593.36 2106.92 228.591 2540.97C-335.199 3211.84 -1594.43 3421.8 -1496.53 4005.59C-1427.18 4444.3 -771.961 4335.65 -291.835 4506.13C155.378 4664.92 125.812 5013.69 872.297 4892.18Z" stroke="url(#paint4_linear_7_55)" stroke-opacity="0.5" stroke-width="3"/>
<path d="M865.962 4886.71C1589.93 4768.91 2296.9 4142.17 2346.79 3604.16C2377.71 3270.69 1768.1 3389.93 1684.71 3075.4C1549.08 2628.55 2657.94 2147.83 2538.58 1686.99C2417.36 1185.42 1801.23 769.944 1117.91 1191.55C483.839 1541.66 595.784 2147.86 233.864 2578.6C-325.523 3244.37 -1572.21 3420.08 -1483.93 3998.2C-1421.91 4435.78 -765.505 4334.23 -289.114 4503.47C154.62 4661.1 125.291 5007.24 865.962 4886.71Z" stroke="url(#paint5_linear_7_55)" stroke-opacity="0.5" stroke-width="3"/>
<path d="M859.629 4881.24C1577.91 4764.4 2279.32 4142.48 2328.81 3608.55C2359.48 3277.62 1729.72 3412.09 1637.61 3100.05C1486.17 2650.84 2655.88 2155.55 2530.81 1687.24C2407.56 1190.82 1812.06 787.331 1128.94 1194.54C473.245 1540.63 598.211 2188.79 239.139 2616.23C-315.845 3276.89 -1549.98 3418.35 -1471.33 3990.79C-1416.64 4427.26 -759.047 4332.81 -286.39 4500.8C153.865 4657.28 124.773 5000.79 859.629 4881.24Z" stroke="url(#paint6_linear_7_55)" stroke-opacity="0.5" stroke-width="3"/>
<path d="M853.308 4875.77C1565.9 4759.88 2261.75 4142.78 2310.84 3612.95C2341.27 3284.55 1691.35 3434.24 1590.52 3124.69C1423.26 2673.13 2653.83 2163.26 2523.06 1687.49C2397.78 1196.23 1822.9 804.714 1139.99 1197.53C462.662 1539.59 600.649 2229.72 244.426 2653.86C-306.154 3309.42 -1527.75 3416.62 -1458.72 3983.39C-1411.36 4418.73 -752.576 4331.38 -283.654 4498.13C153.121 4653.45 124.267 4994.33 853.308 4875.77Z" stroke="url(#paint7_linear_7_55)" stroke-opacity="0.5" stroke-width="3"/>
<path d="M846.967 4870.3C1553.88 4755.37 2244.17 4143.1 2292.85 3617.35C2323.03 3291.49 1652.97 3456.4 1543.4 3149.35C1360.33 2695.43 2651.75 2170.98 2515.29 1687.74C2387.97 1201.64 1833.72 822.103 1151.01 1200.52C452.059 1538.56 603.068 2270.66 249.694 2691.49C-296.483 3341.94 -1505.53 3414.9 -1446.13 3975.99C-1406.09 4410.21 -746.125 4329.96 -280.939 4495.47C152.358 4649.63 123.741 4987.88 846.967 4870.3Z" stroke="url(#paint8_linear_7_55)" stroke-opacity="0.5" stroke-width="3"/>
<path d="M840.642 4864.82C1541.87 4750.85 2226.6 4143.4 2274.88 3621.74C2304.81 3298.42 1614.6 3478.56 1496.31 3173.99C1297.42 2717.72 2649.7 2178.69 2507.53 1687.99C2378.18 1207.04 1844.56 839.487 1162.05 1203.51C441.473 1537.53 605.502 2311.59 254.977 2729.12C-286.797 3374.47 -1483.3 3413.17 -1433.52 3968.58C-1400.82 4401.69 -739.659 4328.54 -278.207 4492.8C151.611 4645.8 123.23 4981.42 840.642 4864.82Z" stroke="url(#paint9_linear_7_55)" stroke-opacity="0.5" stroke-width="3"/>
<path d="M834.294 4859.36C1529.84 4746.35 2209.01 4143.72 2256.89 3626.15C2286.56 3305.36 1576.2 3500.73 1449.19 3198.65C1234.49 2740.02 2647.62 2186.42 2499.75 1688.25C2368.37 1212.46 1855.37 856.882 1173.06 1206.51C430.863 1536.5 607.913 2352.53 260.237 2766.76C-277.134 3407 -1461.09 3411.45 -1420.94 3961.19C-1395.56 4393.18 -733.215 4327.12 -275.499 4490.14C150.84 4641.99 122.697 4974.98 834.294 4859.36Z" stroke="url(#paint10_linear_7_55)" stroke-opacity="0.5" stroke-width="3"/>
<path d="M827.969 4853.89C1517.83 4741.84 2191.44 4144.03 2238.92 3630.55C2268.34 3312.29 1537.83 3522.88 1402.09 3223.3C1171.58 2762.31 2645.56 2194.13 2492 1688.5C2358.58 1217.86 1866.21 874.266 1184.1 1209.49C420.277 1535.46 610.348 2393.46 265.521 2804.39C-267.446 3439.53 -1438.85 3409.72 -1408.33 3953.78C-1390.28 4384.65 -726.748 4325.69 -272.766 4487.47C150.094 4638.16 122.187 4968.52 827.969 4853.89Z" stroke="url(#paint11_linear_7_55)" stroke-opacity="0.5" stroke-width="3"/>
<path d="M821.645 4848.41C1505.82 4737.32 2173.87 4144.33 2220.95 3634.94C2250.12 3319.21 1499.46 3545.03 1355 3247.95C1108.67 2784.6 2643.5 2201.84 2484.25 1688.75C2348.8 1223.26 1877.05 891.647 1195.14 1212.48C409.691 1534.43 612.784 2434.39 270.805 2842.01C-257.759 3472.05 -1416.62 3407.99 -1395.72 3946.38C-1385 4376.13 -720.28 4324.27 -270.034 4484.8C149.347 4634.34 121.678 4962.06 821.645 4848.41Z" stroke="url(#paint12_linear_7_55)" stroke-opacity="0.5" stroke-width="3"/>
<path d="M815.315 4842.94C1493.81 4732.8 2156.3 4144.64 2202.97 3639.34C2231.9 3326.14 1461.09 3567.19 1307.89 3272.6C1045.76 2806.89 2641.44 2209.55 2476.48 1689C2339 1228.67 1887.88 909.034 1206.18 1215.47C399.1 1533.39 615.213 2475.32 276.084 2879.64C-248.078 3504.57 -1394.39 3406.26 -1383.12 3938.97C-1379.72 4367.61 -713.819 4322.84 -267.307 4482.14C148.595 4630.51 121.163 4955.61 815.315 4842.94Z" stroke="url(#paint13_linear_7_55)" stroke-opacity="0.5" stroke-width="3"/>
<path d="M808.977 4837.47C1481.79 4728.29 2138.71 4144.95 2184.98 3643.74C2213.66 3333.08 1422.7 3589.35 1260.78 3297.25C982.837 2829.19 2639.37 2217.27 2468.72 1689.25C2329.2 1234.08 1898.71 926.423 1217.2 1218.46C388.5 1532.36 617.634 2516.25 281.353 2917.28C-238.405 3537.1 -1372.17 3404.54 -1370.53 3931.58C-1374.46 4359.09 -707.366 4321.42 -264.589 4479.47C147.834 4626.69 120.639 4949.16 808.977 4837.47Z" stroke="url(#paint14_linear_7_55)" stroke-opacity="0.5" stroke-width="3"/>
<path d="M802.645 4832C1469.77 4723.78 2121.14 4145.26 2167.01 3648.13C2195.44 3340.01 1384.33 3611.51 1213.68 3321.9C919.921 2851.48 2637.31 2224.99 2460.95 1689.5C2319.41 1239.49 1909.54 943.811 1228.24 1221.45C377.907 1531.33 620.062 2557.19 286.631 2954.91C-228.724 3569.63 -1349.94 3402.81 -1357.93 3924.17C-1369.18 4350.57 -700.905 4320 -261.863 4476.81C147.081 4622.87 120.123 4942.71 802.645 4832Z" stroke="url(#paint15_linear_7_55)" stroke-opacity="0.5" stroke-width="3"/>
<path d="M796.314 4826.53C1457.76 4719.27 2103.56 4145.57 2149.03 3652.53C2177.21 3346.94 1345.95 3633.67 1166.58 3346.55C857.005 2873.77 2635.25 2232.7 2453.19 1689.75C2309.61 1244.89 1920.37 961.197 1239.27 1224.44C367.314 1530.3 622.49 2598.12 291.908 2992.54C-219.044 3602.15 -1327.72 3401.08 -1345.33 3916.77C-1363.91 4342.04 -694.445 4318.57 -259.138 4474.14C146.327 4619.05 119.606 4936.25 796.314 4826.53Z" stroke="url(#paint16_linear_7_55)" stroke-opacity="0.5" stroke-width="3"/>
</g>
<defs>
<filter id="filter0_f_7_55" x="-1560.37" y="965.658" width="4148.21" height="3978.01" filterUnits="userSpaceOnUse" color-interpolation-filters="sRGB">
<feFlood flood-opacity="0" result="BackgroundImageFix"/>
<feBlend mode="normal" in="SourceGraphic" in2="BackgroundImageFix" result="shape"/>
<feGaussianBlur stdDeviation="1" result="effect1_foregroundBlur_7_55"/>
</filter>
<linearGradient id="paint0_linear_7_55" x1="2640.35" y1="2464.59" x2="-1647.1" y2="2795.94" gradientUnits="userSpaceOnUse">
<stop stop-color="#53F1F1"/>
<stop offset="1" stop-color="#629CE8"/>
</linearGradient>
<linearGradient id="paint1_linear_7_55" x1="2633.26" y1="2468.6" x2="-1632.84" y2="2798.11" gradientUnits="userSpaceOnUse">
<stop stop-color="#53F1F1"/>
<stop offset="1" stop-color="#629CE8"/>
</linearGradient>
<linearGradient id="paint2_linear_7_55" x1="2626.08" y1="2472.6" x2="-1618.77" y2="2800.47" gradientUnits="userSpaceOnUse">
<stop stop-color="#53F1F1"/>
<stop offset="1" stop-color="#629CE8"/>
</linearGradient>
<linearGradient id="paint3_linear_7_55" x1="2618.91" y1="2476.56" x2="-1604.77" y2="2802.8" gradientUnits="userSpaceOnUse">
<stop stop-color="#53F1F1"/>
<stop offset="1" stop-color="#629CE8"/>
</linearGradient>
<linearGradient id="paint4_linear_7_55" x1="2611.73" y1="2480.49" x2="-1590.85" y2="2805.09" gradientUnits="userSpaceOnUse">
<stop stop-color="#53F1F1"/>
<stop offset="1" stop-color="#629CE8"/>
</linearGradient>
<linearGradient id="paint5_linear_7_55" x1="2604.55" y1="2484.37" x2="-1577.02" y2="2807.36" gradientUnits="userSpaceOnUse">
<stop stop-color="#53F1F1"/>
<stop offset="1" stop-color="#629CE8"/>
</linearGradient>
<linearGradient id="paint6_linear_7_55" x1="2597.36" y1="2488.21" x2="-1563.27" y2="2809.58" gradientUnits="userSpaceOnUse">
<stop stop-color="#53F1F1"/>
<stop offset="1" stop-color="#629CE8"/>
</linearGradient>
<linearGradient id="paint7_linear_7_55" x1="2590.18" y1="2491.99" x2="-1549.6" y2="2811.74" gradientUnits="userSpaceOnUse">
<stop stop-color="#53F1F1"/>
<stop offset="1" stop-color="#629CE8"/>
</linearGradient>
<linearGradient id="paint8_linear_7_55" x1="2582.97" y1="2495.72" x2="-1536.05" y2="2813.87" gradientUnits="userSpaceOnUse">
<stop stop-color="#53F1F1"/>
<stop offset="1" stop-color="#629CE8"/>
</linearGradient>
<linearGradient id="paint9_linear_7_55" x1="2575.78" y1="2499.37" x2="-1522.58" y2="2815.92" gradientUnits="userSpaceOnUse">
<stop stop-color="#53F1F1"/>
<stop offset="1" stop-color="#629CE8"/>
</linearGradient>
<linearGradient id="paint10_linear_7_55" x1="2568.56" y1="2502.95" x2="-1509.32" y2="2817.92" gradientUnits="userSpaceOnUse">
<stop stop-color="#53F1F1"/>
<stop offset="1" stop-color="#629CE8"/>
</linearGradient>
<linearGradient id="paint11_linear_7_55" x1="2561.35" y1="2506.44" x2="-1496.17" y2="2819.84" gradientUnits="userSpaceOnUse">
<stop stop-color="#53F1F1"/>
<stop offset="1" stop-color="#629CE8"/>
</linearGradient>
<linearGradient id="paint12_linear_7_55" x1="2554.14" y1="2509.82" x2="-1483.15" y2="2821.65" gradientUnits="userSpaceOnUse">
<stop stop-color="#53F1F1"/>
<stop offset="1" stop-color="#629CE8"/>
</linearGradient>
<linearGradient id="paint13_linear_7_55" x1="2546.91" y1="2513.08" x2="-1470.25" y2="2823.36" gradientUnits="userSpaceOnUse">
<stop stop-color="#53F1F1"/>
<stop offset="1" stop-color="#629CE8"/>
</linearGradient>
<linearGradient id="paint14_linear_7_55" x1="2539.67" y1="2516.21" x2="-1457.47" y2="2824.94" gradientUnits="userSpaceOnUse">
<stop stop-color="#53F1F1"/>
<stop offset="1" stop-color="#629CE8"/>
</linearGradient>
<linearGradient id="paint15_linear_7_55" x1="2532.41" y1="2519.16" x2="-1444.8" y2="2826.36" gradientUnits="userSpaceOnUse">
<stop stop-color="#53F1F1"/>
<stop offset="1" stop-color="#629CE8"/>
</linearGradient>
<linearGradient id="paint16_linear_7_55" x1="2525.15" y1="2521.92" x2="-1432.24" y2="2827.58" gradientUnits="userSpaceOnUse">
<stop stop-color="#53F1F1"/>
<stop offset="1" stop-color="#629CE8"/>
</linearGradient>
</defs>
</svg>
