<svg width="1680" height="1818" viewBox="0 0 1680 1818" fill="none" xmlns="http://www.w3.org/2000/svg">
<g opacity="0.5" filter="url(#filter0_f_7_37)">
<path d="M487.406 1565.02C839.478 1693.75 1291.25 1540.7 1427.32 1260.91C1511.66 1087.48 1281.63 979.527 1330.8 797.69C1394.63 554.827 1827.38 547.247 1873.94 301.634C1932.83 -3.65827 1716.69 -437.747 1318.82 -354.292C1014.88 -294.939 954.687 -74.8784 700.22 63.3415C306.915 276.975 -332.972 123.062 -396.924 476.4C-444.098 734.33 -133.405 829.332 46.2046 1048.46C213.502 1252.57 127.21 1433.32 487.406 1565.02Z" stroke="url(#paint0_linear_7_37)" stroke-width="3"/>
<path d="M485.765 1560.55C835.169 1688.31 1283.56 1536.36 1418.63 1258.61C1502.35 1086.45 1260.47 981.325 1305.35 798.559C1362.79 550.403 1824.96 550.779 1870.57 299.788C1927.54 -3.31532 1717.95 -425.812 1323.08 -349.854C1010.55 -298.157 947.486 -52.7313 694.922 84.4891C304.557 296.578 -322.912 127.922 -389.91 475.807C-440.052 731.266 -130.286 830.29 47.9456 1047.8C213.959 1250.4 128.298 1429.84 485.765 1560.55Z" stroke="url(#paint1_linear_7_37)" stroke-width="3"/>
<path d="M484.124 1556.05C830.862 1682.86 1275.85 1532.02 1409.92 1256.3C1493.02 1085.42 1239.28 983.106 1279.86 799.41C1330.9 545.959 1822.5 554.299 1867.14 297.928C1922.18 -2.99076 1719.13 -413.907 1327.27 -345.454C1006.16 -301.418 940.221 -30.6235 689.567 105.595C302.154 316.134 -312.897 132.72 -382.927 475.155C-436.027 728.147 -127.188 831.201 49.6722 1047.1C214.408 1248.21 129.385 1426.32 484.124 1556.05Z" stroke="url(#paint2_linear_7_37)" stroke-width="3"/>
<path d="M482.487 1551.56C826.559 1677.41 1268.15 1527.67 1401.21 1254C1483.69 1084.38 1218.09 984.888 1254.37 800.261C1299.01 541.514 1820.03 557.819 1863.72 296.068C1916.83 -2.66661 1720.31 -402.002 1331.47 -341.053C1001.76 -304.678 932.961 -8.51632 684.217 126.699C299.756 335.69 -302.877 137.517 -375.939 474.504C-431.999 725.027 -124.086 832.111 51.4029 1046.4C214.861 1246.01 130.476 1422.8 482.487 1551.56Z" stroke="url(#paint3_linear_7_37)" stroke-width="3"/>
<path d="M480.85 1547.06C822.255 1671.96 1260.45 1523.32 1392.51 1251.69C1474.36 1083.34 1196.9 986.669 1228.88 801.111C1267.13 537.069 1817.57 561.338 1860.3 294.207C1911.47 -2.34348 1721.49 -390.098 1335.66 -336.654C997.372 -307.94 925.7 13.59 678.866 147.803C297.357 355.245 -292.859 142.314 -368.952 473.851C-427.97 721.907 -120.984 833.021 53.1332 1045.7C215.314 1243.8 131.567 1419.28 480.85 1547.06Z" stroke="url(#paint4_linear_7_37)" stroke-width="3"/>
<path d="M479.207 1542.56C817.946 1666.51 1252.74 1518.97 1383.79 1249.39C1465.02 1082.3 1175.71 988.451 1203.39 801.963C1235.24 532.626 1815.1 564.859 1856.87 292.348C1906.11 -2.01811 1722.66 -378.192 1339.85 -332.252C992.974 -311.2 918.433 35.6984 673.509 168.909C294.953 374.802 -282.845 147.112 -361.971 473.2C-423.948 718.788 -117.888 833.932 54.8575 1045C215.761 1241.61 132.651 1415.76 479.207 1542.56Z" stroke="url(#paint5_linear_7_37)" stroke-width="3"/>
<path d="M477.565 1538.07C813.637 1661.06 1245.04 1514.62 1375.08 1247.08C1455.68 1081.26 1154.52 990.233 1177.89 802.814C1203.35 528.181 1812.64 568.379 1853.44 290.488C1900.76 -1.69393 1723.83 -366.287 1344.03 -327.851C988.577 -314.46 911.168 57.8058 668.154 190.015C292.55 394.358 -272.83 151.91 -354.988 472.548C-419.923 715.669 -114.791 834.843 56.5834 1044.3C216.209 1239.41 133.737 1412.24 477.565 1538.07Z" stroke="url(#paint6_linear_7_37)" stroke-width="3"/>
<path d="M475.93 1533.57C809.336 1655.6 1237.34 1510.28 1366.38 1244.78C1446.36 1080.22 1133.33 992.015 1152.41 803.666C1171.47 523.737 1810.18 571.9 1850.02 288.628C1895.4 -1.36899 1725.01 -354.381 1348.23 -323.45C984.186 -317.72 903.909 79.9138 662.805 211.12C290.153 413.914 -262.809 156.707 -347.998 471.897C-415.893 712.55 -111.687 835.753 58.316 1043.6C216.664 1237.21 134.83 1408.72 475.93 1533.57Z" stroke="url(#paint7_linear_7_37)" stroke-width="3"/>
<path d="M474.284 1529.07C805.024 1650.15 1229.63 1505.93 1357.66 1242.47C1437.02 1079.18 1112.14 993.795 1126.91 804.515C1139.57 519.292 1807.71 575.418 1846.59 286.766C1890.04 -1.0461 1726.19 -342.478 1352.41 -319.051C979.786 -320.982 896.64 102.02 657.446 232.224C287.746 433.469 -252.798 161.504 -341.019 471.244C-411.872 709.429 -108.593 836.663 60.038 1042.9C217.109 1235.01 135.912 1405.2 474.284 1529.07Z" stroke="url(#paint8_linear_7_37)" stroke-width="3"/>
<path d="M472.647 1524.58C800.72 1644.7 1221.92 1501.58 1348.95 1240.17C1427.68 1078.14 1090.95 995.578 1101.42 805.367C1107.69 514.848 1805.25 578.939 1843.17 284.907C1884.69 -0.72141 1727.36 -330.572 1356.61 -314.649C975.393 -324.242 889.379 124.128 652.095 253.329C285.347 453.025 -242.779 166.301 -334.033 470.593C-407.844 706.31 -105.491 837.574 61.7681 1042.2C217.561 1232.81 137.002 1401.68 472.647 1524.58Z" stroke="url(#paint9_linear_7_37)" stroke-width="3"/>
<path d="M470.997 1520.08C796.404 1639.25 1214.21 1497.23 1340.23 1237.86C1418.34 1077.1 1069.75 997.36 1075.92 806.219C1075.79 510.405 1802.77 582.46 1839.74 283.047C1879.32 -0.396344 1728.53 -318.667 1360.79 -310.248C970.988 -327.502 882.105 146.236 646.731 274.435C282.936 472.582 -232.773 171.1 -327.058 469.942C-403.829 703.191 -102.402 838.485 63.4857 1041.51C218.001 1230.61 138.08 1398.16 470.997 1520.08Z" stroke="url(#paint10_linear_7_37)" stroke-width="3"/>
<path d="M469.359 1515.58C792.1 1633.8 1206.51 1492.88 1331.52 1235.56C1409.01 1076.07 1048.56 999.142 1050.43 807.07C1043.91 505.96 1800.31 585.98 1836.31 281.187C1873.96 -0.071946 1729.71 -306.761 1364.98 -305.847C966.595 -330.763 874.844 168.343 641.381 295.541C280.537 492.137 -222.754 175.897 -320.071 469.291C-399.8 700.072 -99.3002 839.396 65.2159 1040.81C218.454 1228.41 139.171 1394.64 469.359 1515.58Z" stroke="url(#paint11_linear_7_37)" stroke-width="3"/>
<path d="M467.723 1511.09C787.797 1628.34 1198.81 1488.53 1322.82 1233.25C1399.68 1075.03 1027.38 1000.92 1024.95 807.92C1012.02 501.515 1797.85 589.499 1832.89 279.326C1868.61 0.251115 1730.89 -294.857 1369.17 -301.448C962.203 -334.025 867.584 190.45 636.031 316.644C278.139 511.692 -212.734 180.694 -313.082 468.638C-395.771 696.951 -96.1972 840.305 66.9473 1040.1C218.908 1226.21 140.262 1391.12 467.723 1511.09Z" stroke="url(#paint12_linear_7_37)" stroke-width="3"/>
<path d="M466.083 1506.59C783.491 1622.89 1191.1 1484.19 1314.11 1230.95C1390.35 1073.99 1006.19 1002.7 999.456 808.772C980.135 497.071 1795.38 593.019 1829.47 277.466C1863.25 0.575978 1732.07 -282.952 1373.36 -297.047C957.808 -337.285 860.321 212.558 630.677 337.75C275.738 531.248 -202.717 185.491 -306.098 467.987C-391.745 693.832 -93.0982 841.216 68.6748 1039.4C219.358 1224.01 141.35 1387.6 466.083 1506.59Z" stroke="url(#paint13_linear_7_37)" stroke-width="3"/>
<path d="M464.438 1502.09C779.18 1617.44 1183.4 1479.84 1305.39 1228.64C1381.01 1072.95 984.993 1004.49 973.96 809.622C948.243 492.626 1792.91 596.539 1826.04 275.606C1857.89 0.900224 1733.24 -271.047 1377.55 -292.646C953.408 -340.545 853.052 234.665 625.319 358.855C273.332 550.804 -192.706 190.289 -299.118 467.335C-387.724 690.713 -90.0039 842.126 70.3976 1038.7C219.803 1221.81 142.433 1384.08 464.438 1502.09Z" stroke="url(#paint14_linear_7_37)" stroke-width="3"/>
<path d="M462.798 1497.6C774.873 1611.99 1175.69 1475.49 1296.68 1226.34C1371.67 1071.91 963.802 1006.27 948.468 810.474C916.355 488.183 1790.45 600.06 1822.61 273.746C1852.53 1.22498 1734.41 -259.141 1381.74 -288.245C949.012 -343.805 845.788 256.773 619.965 379.961C270.93 570.361 -182.689 195.087 -292.134 466.684C-383.699 687.594 -86.9049 843.038 72.125 1038.01C220.253 1219.61 143.52 1380.56 462.798 1497.6Z" stroke="url(#paint15_linear_7_37)" stroke-width="3"/>
<path d="M461.156 1493.1C770.566 1606.54 1167.99 1471.14 1287.97 1224.03C1362.34 1070.87 942.611 1008.05 922.977 811.325C884.466 483.738 1787.98 603.579 1819.18 271.886C1847.18 1.54871 1735.59 -247.237 1385.93 -283.845C944.616 -347.067 838.524 278.88 614.61 401.065C268.527 589.916 -172.674 199.884 -285.151 466.032C-379.674 684.474 -83.807 843.948 73.8513 1037.3C220.702 1217.41 144.607 1377.04 461.156 1493.1Z" stroke="url(#paint16_linear_7_37)" stroke-width="3"/>
</g>
<defs>
<filter id="filter0_f_7_37" x="-405.287" y="-368.204" width="2292.35" height="1982.83" filterUnits="userSpaceOnUse" color-interpolation-filters="sRGB">
<feFlood flood-opacity="0" result="BackgroundImageFix"/>
<feBlend mode="normal" in="SourceGraphic" in2="BackgroundImageFix" result="shape"/>
<feGaussianBlur stdDeviation="1" result="effect1_foregroundBlur_7_37"/>
</filter>
<linearGradient id="paint0_linear_7_37" x1="1743.07" y1="726.596" x2="-280.725" y2="96.2455" gradientUnits="userSpaceOnUse">
<stop stop-color="#53F1F1"/>
<stop offset="1" stop-color="#629CE8"/>
</linearGradient>
<linearGradient id="paint1_linear_7_37" x1="1739.17" y1="726.883" x2="-274.521" y2="99.5933" gradientUnits="userSpaceOnUse">
<stop stop-color="#53F1F1"/>
<stop offset="1" stop-color="#629CE8"/>
</linearGradient>
<linearGradient id="paint2_linear_7_37" x1="1735.24" y1="727.142" x2="-268.428" y2="102.976" gradientUnits="userSpaceOnUse">
<stop stop-color="#53F1F1"/>
<stop offset="1" stop-color="#629CE8"/>
</linearGradient>
<linearGradient id="paint3_linear_7_37" x1="1731.31" y1="727.382" x2="-262.358" y2="106.329" gradientUnits="userSpaceOnUse">
<stop stop-color="#53F1F1"/>
<stop offset="1" stop-color="#629CE8"/>
</linearGradient>
<linearGradient id="paint4_linear_7_37" x1="1727.4" y1="727.6" x2="-256.317" y2="109.649" gradientUnits="userSpaceOnUse">
<stop stop-color="#53F1F1"/>
<stop offset="1" stop-color="#629CE8"/>
</linearGradient>
<linearGradient id="paint5_linear_7_37" x1="1723.48" y1="727.796" x2="-250.312" y2="112.935" gradientUnits="userSpaceOnUse">
<stop stop-color="#53F1F1"/>
<stop offset="1" stop-color="#629CE8"/>
</linearGradient>
<linearGradient id="paint6_linear_7_37" x1="1719.57" y1="727.966" x2="-244.336" y2="116.183" gradientUnits="userSpaceOnUse">
<stop stop-color="#53F1F1"/>
<stop offset="1" stop-color="#629CE8"/>
</linearGradient>
<linearGradient id="paint7_linear_7_37" x1="1715.68" y1="728.106" x2="-238.385" y2="119.389" gradientUnits="userSpaceOnUse">
<stop stop-color="#53F1F1"/>
<stop offset="1" stop-color="#629CE8"/>
</linearGradient>
<linearGradient id="paint8_linear_7_37" x1="1711.79" y1="728.213" x2="-232.477" y2="122.548" gradientUnits="userSpaceOnUse">
<stop stop-color="#53F1F1"/>
<stop offset="1" stop-color="#629CE8"/>
</linearGradient>
<linearGradient id="paint9_linear_7_37" x1="1707.92" y1="728.283" x2="-226.596" y2="125.656" gradientUnits="userSpaceOnUse">
<stop stop-color="#53F1F1"/>
<stop offset="1" stop-color="#629CE8"/>
</linearGradient>
<linearGradient id="paint10_linear_7_37" x1="1704.06" y1="728.312" x2="-220.792" y2="128.698" gradientUnits="userSpaceOnUse">
<stop stop-color="#53F1F1"/>
<stop offset="1" stop-color="#629CE8"/>
</linearGradient>
<linearGradient id="paint11_linear_7_37" x1="1700.21" y1="728.292" x2="-215.029" y2="131.67" gradientUnits="userSpaceOnUse">
<stop stop-color="#53F1F1"/>
<stop offset="1" stop-color="#629CE8"/>
</linearGradient>
<linearGradient id="paint12_linear_7_37" x1="1696.39" y1="728.214" x2="-209.3" y2="134.568" gradientUnits="userSpaceOnUse">
<stop stop-color="#53F1F1"/>
<stop offset="1" stop-color="#629CE8"/>
</linearGradient>
<linearGradient id="paint13_linear_7_37" x1="1692.59" y1="728.073" x2="-203.604" y2="137.386" gradientUnits="userSpaceOnUse">
<stop stop-color="#53F1F1"/>
<stop offset="1" stop-color="#629CE8"/>
</linearGradient>
<linearGradient id="paint14_linear_7_37" x1="1688.8" y1="727.854" x2="-197.939" y2="140.112" gradientUnits="userSpaceOnUse">
<stop stop-color="#53F1F1"/>
<stop offset="1" stop-color="#629CE8"/>
</linearGradient>
<linearGradient id="paint15_linear_7_37" x1="1685.04" y1="727.545" x2="-192.289" y2="142.733" gradientUnits="userSpaceOnUse">
<stop stop-color="#53F1F1"/>
<stop offset="1" stop-color="#629CE8"/>
</linearGradient>
<linearGradient id="paint16_linear_7_37" x1="1681.32" y1="727.126" x2="-186.653" y2="145.228" gradientUnits="userSpaceOnUse">
<stop stop-color="#53F1F1"/>
<stop offset="1" stop-color="#629CE8"/>
</linearGradient>
</defs>
</svg>
