<svg width="402" height="368" viewBox="0 0 402 368" fill="none" xmlns="http://www.w3.org/2000/svg">
<path d="M129.928 53.3098L129.826 52.8203L129.928 53.3098ZM365.563 105.174L366.062 105.138L365.563 105.174ZM209.96 316.253L209.786 316.722L209.96 316.253ZM130.03 53.7993C179.622 43.4789 236.515 29.7093 281.989 31.8708C304.717 32.9511 324.519 38.0102 339.114 49.4106C353.69 60.7965 363.14 78.5621 365.064 105.21L366.062 105.138C364.122 78.2712 354.574 60.2179 339.73 48.6225C324.904 37.0415 304.863 31.9569 282.036 30.8719C236.401 28.7027 179.34 42.5163 129.826 52.8203L130.03 53.7993ZM365.064 105.21C369.884 171.966 346.149 230.221 313.676 268.981C297.439 288.362 279.03 302.854 260.934 311.101C242.834 319.35 225.089 321.336 210.134 315.784L209.786 316.722C225.065 322.394 243.094 320.33 261.349 312.011C279.606 303.69 298.13 289.095 314.442 269.623C347.069 230.68 370.901 172.172 366.062 105.138L365.064 105.21ZM210.134 315.784C194.402 309.944 166.816 293.677 137.952 271.768C109.095 249.865 79.0124 222.362 58.2679 194.079C37.5038 165.77 26.1944 136.817 34.5933 111.946C42.9857 87.0946 71.1524 66.052 130.03 53.7993L129.826 52.8203C70.8659 65.0902 42.2175 86.244 33.6458 111.626C25.0807 136.989 36.6585 166.308 57.4615 194.671C78.2841 223.06 108.448 250.63 137.347 272.565C166.239 294.495 193.917 310.831 209.786 316.722L210.134 315.784Z" fill="url(#paint0_linear_4950_26671)" fill-opacity="0.5"/>
<path d="M105.349 78.8695L105.146 78.4133L105.146 78.4133L105.349 78.8695ZM346.468 78.2303L346.947 78.0866L346.468 78.2303ZM239.53 318.262L239.46 318.758L239.53 318.262ZM105.553 79.3257C151.774 58.4503 204.387 32.6166 249.247 24.8287C271.668 20.9362 292.081 21.5666 308.76 29.5242C325.419 37.4717 338.432 52.7659 345.989 78.374L346.947 78.0866C339.327 52.2677 326.157 36.7136 309.193 28.62C292.249 20.5364 271.598 19.933 249.08 23.8423C204.061 31.658 151.293 57.571 105.146 78.4133L105.553 79.3257ZM345.989 78.374C364.922 142.524 354.164 204.588 330.719 249.514C318.997 271.977 304.112 290.139 288.201 302.133C272.287 314.13 255.384 319.933 239.599 317.766L239.46 318.758C255.587 320.971 272.75 315.031 288.799 302.932C304.852 290.831 319.827 272.543 331.604 249.975C355.16 204.836 365.959 142.504 346.947 78.0866L345.989 78.374ZM239.599 317.766C222.994 315.486 192.593 305.604 159.742 290.489C126.899 275.378 91.6661 255.065 65.3842 231.957C39.0773 208.827 21.865 183.012 24.7647 156.893C27.6623 130.794 50.6785 104.11 105.553 79.3257L105.146 78.4133C50.1943 103.232 26.7314 130.129 23.772 156.786C20.8148 183.422 38.3677 209.538 64.7237 232.711C91.1047 255.905 126.432 276.266 159.323 291.399C192.205 306.528 222.711 316.458 239.46 318.758L239.599 317.766Z" fill="url(#paint1_linear_4950_26671)" fill-opacity="0.5"/>
<path d="M363.036 99.92C350.719 -6.67465 223.526 33.4862 125.403 58.4394C-107.936 117.779 152.501 296.964 216.65 317.633C278.023 337.407 378.431 233.163 363.036 99.92Z" stroke="url(#paint2_linear_4950_26671)" stroke-opacity="0.5"/>
<path d="M359.859 94.5701C342.977 -11.3874 217.633 34.3166 120.677 63.5515C-109.886 133.073 157.993 300.67 222.967 318.506C285.129 335.57 380.963 227.017 359.859 94.5701Z" stroke="url(#paint3_linear_4950_26671)" stroke-opacity="0.5"/>
<path d="M356.043 89.1528C334.626 -15.9677 211.367 35.1933 115.761 68.6548C-111.591 148.227 163.225 303.921 228.901 318.89C291.736 333.212 382.814 220.553 356.043 89.1528Z" stroke="url(#paint4_linear_4950_26671)" stroke-opacity="0.5"/>
<path d="M351.579 83.6976C325.669 -20.3877 204.728 36.1338 110.652 73.7589C-113.061 163.232 168.173 306.729 234.429 318.804C297.817 330.356 383.968 213.804 351.579 83.6976Z" stroke="url(#paint5_linear_4950_26671)" stroke-opacity="0.5"/>
<defs>
<linearGradient id="paint0_linear_4950_26671" x1="125.592" y1="36.2366" x2="465.468" y2="202.612" gradientUnits="userSpaceOnUse">
<stop stop-color="#0BCDED"/>
<stop offset="1" stop-color="#5576E7"/>
</linearGradient>
<linearGradient id="paint1_linear_4950_26671" x1="97.4776" y1="63.1381" x2="464.483" y2="152.86" gradientUnits="userSpaceOnUse">
<stop stop-color="#0BCDED"/>
<stop offset="1" stop-color="#5576E7"/>
</linearGradient>
<linearGradient id="paint2_linear_4950_26671" x1="120.338" y1="41.5719" x2="466.946" y2="193.076" gradientUnits="userSpaceOnUse">
<stop stop-color="#0BCDED"/>
<stop offset="1" stop-color="#5576E7"/>
</linearGradient>
<linearGradient id="paint3_linear_4950_26671" x1="114.893" y1="46.9216" x2="467.586" y2="183.297" gradientUnits="userSpaceOnUse">
<stop stop-color="#0BCDED"/>
<stop offset="1" stop-color="#5576E7"/>
</linearGradient>
<linearGradient id="paint4_linear_4950_26671" x1="109.269" y1="52.2937" x2="467.395" y2="173.311" gradientUnits="userSpaceOnUse">
<stop stop-color="#0BCDED"/>
<stop offset="1" stop-color="#5576E7"/>
</linearGradient>
<linearGradient id="paint5_linear_4950_26671" x1="103.463" y1="57.6975" x2="466.362" y2="163.155" gradientUnits="userSpaceOnUse">
<stop stop-color="#0BCDED"/>
<stop offset="1" stop-color="#5576E7"/>
</linearGradient>
</defs>
</svg>
