<svg width="85" height="95" viewBox="0 0 85 95" fill="none" xmlns="http://www.w3.org/2000/svg">
<g filter="url(#filter0_d_4977_26624)">
<path d="M50.1792 40.4382H48.1792V34.5247C48.1792 30.188 44.5792 26.6399 40.1792 26.6399C35.7792 26.6399 32.1792 30.188 32.1792 34.5247V40.4382H30.1792C29.1792 40.4382 28.1792 41.4238 28.1792 42.4094V56.2078C28.1792 57.1934 29.1792 58.179 30.1792 58.179H50.1792C51.1792 58.179 52.1792 57.1934 52.1792 56.2078V42.4094C52.1792 41.4238 51.1792 40.4382 50.1792 40.4382ZM42.1792 54.2366H38.1792L38.9792 49.9C37.9792 49.5057 37.1792 48.323 37.1792 47.3374C37.1792 45.7605 38.5792 44.3806 40.1792 44.3806C41.7792 44.3806 43.1792 45.7605 43.1792 47.3374C43.1792 48.5201 42.5792 49.5057 41.3792 49.9L42.1792 54.2366ZM44.1792 40.4382H36.1792V34.5247C36.1792 32.3563 37.9792 30.5823 40.1792 30.5823C42.3792 30.5823 44.1792 32.3563 44.1792 34.5247V40.4382Z" fill="white"/>
<path fill-rule="evenodd" clip-rule="evenodd" d="M39.7217 2.25573L40.4384 1.97314L41.1595 2.24439L74.165 14.6602L75.2186 15.0565L75.4265 16.1628C77.3136 26.2067 77.964 41.486 73.7872 55.0337C69.5816 68.6743 60.3799 80.7668 42.5746 83.6086C42.1192 83.6813 41.7464 83.6786 41.3366 83.6686C41.1721 83.6719 40.9948 83.6762 40.8095 83.6808L40.8086 83.6808L40.7249 83.6828C40.3934 83.6909 40.0388 83.6992 39.7351 83.7005C39.4905 83.7015 39.1012 83.7014 38.8 83.6553C20.8528 80.9105 11.5702 68.8219 7.32392 55.149C3.10755 41.5723 3.75652 26.2346 5.64894 16.1627L5.8564 15.0586L6.90732 14.6613L39.6916 2.2676L39.7217 2.25573ZM38.9217 6.83495L9.38251 18.0018C7.72835 27.6469 7.32715 41.6726 11.1439 53.9626C15.0538 66.5523 23.2885 77.1184 39.1023 79.6539V79.6336C40.1084 79.6336 40.7498 79.6512 41.1834 79.6632H41.1837L41.3496 79.6676C41.4384 79.666 41.5249 79.6647 41.6074 79.6639C41.6983 79.6629 41.8041 79.6621 41.9153 79.663C41.925 79.6616 41.9344 79.6602 41.9441 79.6586C57.818 77.1251 66.0652 66.5033 69.9647 53.8552C73.7458 41.5915 73.3422 27.6204 71.6933 18.004L40.4722 6.25951L38.9339 6.86604L38.9217 6.83495Z" fill="white"/>
</g>
<defs>
<filter id="filter0_d_4977_26624" x="0.179199" y="0.973145" width="84.717" height="93.7277" filterUnits="userSpaceOnUse" color-interpolation-filters="sRGB">
<feFlood flood-opacity="0" result="BackgroundImageFix"/>
<feColorMatrix in="SourceAlpha" type="matrix" values="0 0 0 0 0 0 0 0 0 0 0 0 0 0 0 0 0 0 127 0" result="hardAlpha"/>
<feOffset dx="2" dy="5"/>
<feGaussianBlur stdDeviation="3"/>
<feComposite in2="hardAlpha" operator="out"/>
<feColorMatrix type="matrix" values="0 0 0 0 0.168627 0 0 0 0 0.164706 0 0 0 0 0.290196 0 0 0 0.88 0"/>
<feBlend mode="normal" in2="BackgroundImageFix" result="effect1_dropShadow_4977_26624"/>
<feBlend mode="normal" in="SourceGraphic" in2="effect1_dropShadow_4977_26624" result="shape"/>
</filter>
</defs>
</svg>
