<svg width="82" height="93" viewBox="0 0 82 93" fill="none" xmlns="http://www.w3.org/2000/svg">
<g filter="url(#filter0_d_4950_26569)">
<path d="M17.9993 1.5C15.974 1.5 14.0316 2.30917 12.5996 3.74949C11.1675 5.18982 10.3629 7.14332 10.3629 9.18024V38.6148C11.8456 37.8532 13.4493 37.2963 15.1356 36.9827V9.18024C15.1356 8.4164 15.4373 7.68383 15.9744 7.14371C16.5114 6.60359 17.2398 6.30015 17.9993 6.30015H42.1811V27.0976C42.1811 28.7951 42.8515 30.423 44.045 31.6232C45.2384 32.8235 46.857 33.4978 48.5447 33.4978H69.2265V70.6094C69.2265 71.3733 68.9248 72.1058 68.3878 72.6459C67.8508 73.1861 67.1224 73.4895 66.3629 73.4895H32.6356V78.2896H66.3629C68.3882 78.2896 70.3305 77.4805 71.7626 76.0402C73.1947 74.5998 73.9993 72.6463 73.9993 70.6094V32.1442C73.9984 29.8121 73.0771 27.5758 71.4379 25.9264L49.3847 3.74967C47.9527 2.30932 46.0104 1.5001 43.9852 1.5H17.9993ZM67.4447 28.6977H48.5447C48.1228 28.6977 47.7181 28.5291 47.4198 28.229C47.1214 27.929 46.9538 27.522 46.9538 27.0976V8.09221L67.4447 28.6977ZM15.1356 40.25C11.9702 40.9727 9.14325 42.7568 7.11944 45.3093C5.09562 47.8617 3.9953 51.0306 3.99928 54.2953C3.99718 56.187 4.36611 58.0605 5.08492 59.8086C5.80374 61.5567 6.85832 63.145 8.18831 64.4826C9.51829 65.8203 11.0975 66.8809 12.8357 67.6039C14.5738 68.3268 16.4366 68.6978 18.3175 68.6957C20.3334 68.6967 22.3268 68.2695 24.1673 67.4421C26.0077 66.6146 27.6537 65.4057 28.9975 63.8943C30.3413 62.3829 31.3526 60.6031 31.9652 58.6715C32.5778 56.7398 32.778 54.6999 32.5526 52.685C32.3271 50.6702 31.6812 48.726 30.6571 46.9796C29.6329 45.2332 28.2537 43.724 26.6095 42.5507C24.9654 41.3775 23.0934 40.5666 21.1162 40.1713C19.1389 39.7759 17.101 39.8049 15.1356 40.2564V40.25ZM15.0243 77.6848L18.3206 75.0927L25.852 81.0225C26.1807 81.2818 26.5753 81.4429 26.9908 81.4874C27.4062 81.5319 27.8257 81.458 28.2013 81.2741C28.577 81.0902 28.8936 80.8037 29.1151 80.4475C29.3366 80.0912 29.4539 79.6795 29.4538 79.2593V67.8669C26.3221 70.4739 22.3828 71.898 18.3175 71.8926C14.2517 71.9037 10.3108 70.4803 7.1811 67.8701V79.2593C7.18204 79.6786 7.29999 80.0893 7.52155 80.4445C7.7431 80.7998 8.05935 81.0853 8.43432 81.2687C8.80928 81.4521 9.2279 81.526 9.64254 81.4819C10.0572 81.4378 10.4512 81.2775 10.7797 81.0193L15.0243 77.6848Z" fill="white"/>
</g>
<defs>
<filter id="filter0_d_4950_26569" x="-0.000732422" y="0.5" width="82" height="92" filterUnits="userSpaceOnUse" color-interpolation-filters="sRGB">
<feFlood flood-opacity="0" result="BackgroundImageFix"/>
<feColorMatrix in="SourceAlpha" type="matrix" values="0 0 0 0 0 0 0 0 0 0 0 0 0 0 0 0 0 0 127 0" result="hardAlpha"/>
<feOffset dx="2" dy="5"/>
<feGaussianBlur stdDeviation="3"/>
<feComposite in2="hardAlpha" operator="out"/>
<feColorMatrix type="matrix" values="0 0 0 0 0.168627 0 0 0 0 0.164706 0 0 0 0 0.290196 0 0 0 0.88 0"/>
<feBlend mode="normal" in2="BackgroundImageFix" result="effect1_dropShadow_4950_26569"/>
<feBlend mode="normal" in="SourceGraphic" in2="effect1_dropShadow_4950_26569" result="shape"/>
</filter>
</defs>
</svg>
