<svg width="366" height="393" viewBox="0 0 366 393" fill="none" xmlns="http://www.w3.org/2000/svg">
<g filter="url(#filter0_f_2_3)">
<path d="M168.304 32.0001C170.613 28.0001 176.387 28.0001 178.696 32.0001L316.827 271.25C319.137 275.25 316.25 280.25 311.631 280.25H35.3689C30.7501 280.25 27.8634 275.25 30.1728 271.25L168.304 32.0001Z" stroke="url(#paint0_linear_2_3)" stroke-width="17"/>
</g>
<path d="M18 203L28.151 197.497L18.3093 191.457L18 203ZM23.5595 195.852L99.8523 71.5231L98.1477 70.4771L21.8548 194.806L23.5595 195.852Z" fill="url(#paint1_linear_2_3)"/>
<path d="M245.871 323.007L235.867 317.241L235.875 328.788L245.871 323.007ZM236.87 322.013L90.9993 322.121L91.0008 324.121L236.872 324.013L236.87 322.013Z" fill="url(#paint2_linear_2_3)"/>
<path d="M248.725 70.0001L248.868 81.5463L258.796 75.6498L248.725 70.0001ZM253.797 80.4975L257.751 87.1553L259.47 86.134L255.516 79.4762L253.797 80.4975ZM261.705 93.8132L265.659 100.471L267.379 99.4497L263.425 92.7919L261.705 93.8132ZM269.614 107.129L273.568 113.787L275.287 112.765L271.333 106.108L269.614 107.129ZM277.522 120.444L281.476 127.102L283.196 126.081L279.242 119.423L277.522 120.444ZM285.43 133.76L289.385 140.418L291.104 139.397L287.15 132.739L285.43 133.76ZM293.339 147.076L297.293 153.734L299.013 152.712L295.059 146.054L293.339 147.076ZM301.247 160.391L305.202 167.049L306.921 166.028L302.967 159.37L301.247 160.391ZM309.156 173.707L313.11 180.365L314.83 179.344L310.875 172.686L309.156 173.707ZM317.064 187.023L321.019 193.68L322.738 192.659L318.784 186.001L317.064 187.023ZM324.973 200.338L326.95 203.667L328.669 202.646L326.692 199.317L324.973 200.338Z" fill="url(#paint3_linear_2_3)"/>
<g filter="url(#filter1_d_2_3)">
<path d="M175.531 38.2501L313.662 277.5C315.009 279.833 313.325 282.75 310.631 282.75H34.3689C31.6746 282.75 29.9907 279.833 31.3379 277.5L169.469 38.2501C170.816 35.9168 174.184 35.9168 175.531 38.2501Z" stroke="url(#paint4_linear_2_3)" stroke-width="5" shape-rendering="crispEdges"/>
</g>
<defs>
<filter id="filter0_f_2_3" x="0.847305" y="0.500122" width="345.305" height="308.25" filterUnits="userSpaceOnUse" color-interpolation-filters="sRGB">
<feFlood flood-opacity="0" result="BackgroundImageFix"/>
<feBlend mode="normal" in="SourceGraphic" in2="BackgroundImageFix" result="shape"/>
<feGaussianBlur stdDeviation="10" result="effect1_foregroundBlur_2_3"/>
</filter>
<filter id="filter1_d_2_3" x="24.36" y="33.0001" width="300.28" height="263.25" filterUnits="userSpaceOnUse" color-interpolation-filters="sRGB">
<feFlood flood-opacity="0" result="BackgroundImageFix"/>
<feColorMatrix in="SourceAlpha" type="matrix" values="0 0 0 0 0 0 0 0 0 0 0 0 0 0 0 0 0 0 127 0" result="hardAlpha"/>
<feOffset dx="2" dy="5"/>
<feGaussianBlur stdDeviation="3"/>
<feComposite in2="hardAlpha" operator="out"/>
<feColorMatrix type="matrix" values="0 0 0 0 0.168627 0 0 0 0 0.164706 0 0 0 0 0.290196 0 0 0 0.88 0"/>
<feBlend mode="normal" in2="BackgroundImageFix" result="effect1_dropShadow_2_3"/>
<feBlend mode="normal" in="SourceGraphic" in2="effect1_dropShadow_2_3" result="shape"/>
</filter>
<linearGradient id="paint0_linear_2_3" x1="-34.0327" y1="28.9712" x2="414.967" y2="46.5745" gradientUnits="userSpaceOnUse">
<stop stop-color="#8F5AE0"/>
<stop offset="1" stop-color="#37B9C6"/>
</linearGradient>
<linearGradient id="paint1_linear_2_3" x1="11" y1="203" x2="107" y2="99.0001" gradientUnits="userSpaceOnUse">
<stop stop-color="white"/>
<stop offset="1" stop-color="white" stop-opacity="0"/>
</linearGradient>
<linearGradient id="paint2_linear_2_3" x1="257" y1="323" x2="115" y2="274" gradientUnits="userSpaceOnUse">
<stop stop-color="white"/>
<stop offset="1" stop-color="white" stop-opacity="0"/>
</linearGradient>
<linearGradient id="paint3_linear_2_3" x1="248" y1="70.0001" x2="288" y2="203" gradientUnits="userSpaceOnUse">
<stop stop-color="white"/>
<stop offset="1" stop-color="white" stop-opacity="0"/>
</linearGradient>
<linearGradient id="paint4_linear_2_3" x1="76" y1="34.0001" x2="376" y2="398" gradientUnits="userSpaceOnUse">
<stop stop-color="#8793FF"/>
<stop offset="1" stop-color="#53F1F1"/>
</linearGradient>
</defs>
</svg>
