<svg width="57" height="118" viewBox="0 0 57 118" fill="none" xmlns="http://www.w3.org/2000/svg">
<path d="M21.4984 112.106C19.5484 112.106 17.9484 111.556 16.6984 110.456C15.4484 109.356 14.8234 107.881 14.8234 106.031V94.2563H18.2484V105.756C18.2484 106.673 18.5067 107.398 19.0234 107.931C19.5567 108.465 20.3817 108.731 21.4984 108.731C22.6151 108.731 23.4317 108.465 23.9484 107.931C24.4817 107.398 24.7484 106.673 24.7484 105.756V94.2563H28.1984V106.031C28.1984 107.881 27.5734 109.356 26.3234 110.456C25.0734 111.556 23.4651 112.106 21.4984 112.106ZM37.8314 94.2563C39.5147 94.2563 40.9314 94.823 42.0814 95.9563C43.2314 97.0897 43.8064 98.4813 43.8064 100.131C43.8064 101.781 43.2314 103.173 42.0814 104.306C40.9314 105.44 39.5147 106.006 37.8314 106.006H34.7564V111.756H31.3064V94.2563H37.8314ZM37.8314 102.781C38.5647 102.781 39.1731 102.531 39.6564 102.031C40.1397 101.515 40.3814 100.881 40.3814 100.131C40.3814 99.3647 40.1397 98.7313 39.6564 98.2313C39.1731 97.7313 38.5647 97.4813 37.8314 97.4813H34.7564V102.781H37.8314Z" fill="#0BCDED"/>
<mask id="path-2-inside-1_4935_26644" fill="white">
<path fill-rule="evenodd" clip-rule="evenodd" d="M56.8879 40.3687L28.8879 0.756348L0.887939 40.3687H12.5407V78.4976H44.509V40.3687H56.8879Z"/>
</mask>
<path d="M28.8879 0.756348L30.5211 -0.398073L28.8879 -2.70859L27.2547 -0.398073L28.8879 0.756348ZM56.8879 40.3687V42.3687H60.7508L58.5211 39.2143L56.8879 40.3687ZM0.887939 40.3687L-0.745252 39.2143L-2.97495 42.3687H0.887939V40.3687ZM12.5407 40.3687H14.5407V38.3687H12.5407V40.3687ZM12.5407 78.4976H10.5407V80.4976H12.5407V78.4976ZM44.509 78.4976V80.4976H46.509V78.4976H44.509ZM44.509 40.3687V38.3687H42.509V40.3687H44.509ZM27.2547 1.91077L55.2547 41.5232L58.5211 39.2143L30.5211 -0.398073L27.2547 1.91077ZM2.52113 41.5232L30.5211 1.91077L27.2547 -0.398073L-0.745252 39.2143L2.52113 41.5232ZM12.5407 38.3687H0.887939V42.3687H12.5407V38.3687ZM14.5407 78.4976V40.3687H10.5407V78.4976H14.5407ZM44.509 76.4976H12.5407V80.4976H44.509V76.4976ZM42.509 40.3687V78.4976H46.509V40.3687H42.509ZM56.8879 38.3687H44.509V42.3687H56.8879V38.3687Z" fill="#0BCDED" mask="url(#path-2-inside-1_4935_26644)"/>
</svg>
