<svg width="92" height="92" viewBox="0 0 92 92" fill="none" xmlns="http://www.w3.org/2000/svg">
<g filter="url(#filter0_d_2_5)">
<rect x="6" y="2.99988" width="76" height="76" rx="8" fill="white"/>
<rect x="5" y="1.99988" width="78" height="78" rx="9" stroke="url(#paint0_linear_2_5)" stroke-width="2"/>
<rect x="5" y="1.99988" width="78" height="78" rx="9" stroke="url(#paint1_linear_2_5)" stroke-width="2"/>
</g>
<path d="M44 41.0013C50.9437 41.0013 56.5714 35.4043 56.5714 28.5006C56.5714 21.5969 50.9437 15.9999 44 15.9999C37.0562 15.9999 31.4286 21.5969 31.4286 28.5006C31.4286 35.4043 37.0562 41.0013 44 41.0013ZM48.9795 45.6891H39.0205C29.6224 45.6891 22 53.2677 22 62.6139C22 64.4832 23.5243 65.9999 25.4041 65.9999H62.5979C64.4777 66.0028 66 64.489 66 62.6139C66 53.2677 58.3786 45.6891 48.9795 45.6891Z" fill="#4763A7"/>
<defs>
<filter id="filter0_d_2_5" x="0" y="-0.00012207" width="92" height="92" filterUnits="userSpaceOnUse" color-interpolation-filters="sRGB">
<feFlood flood-opacity="0" result="BackgroundImageFix"/>
<feColorMatrix in="SourceAlpha" type="matrix" values="0 0 0 0 0 0 0 0 0 0 0 0 0 0 0 0 0 0 127 0" result="hardAlpha"/>
<feOffset dx="2" dy="5"/>
<feGaussianBlur stdDeviation="3"/>
<feComposite in2="hardAlpha" operator="out"/>
<feColorMatrix type="matrix" values="0 0 0 0 0.168627 0 0 0 0 0.164706 0 0 0 0 0.290196 0 0 0 0.88 0"/>
<feBlend mode="normal" in2="BackgroundImageFix" result="effect1_dropShadow_2_5"/>
<feBlend mode="normal" in="SourceGraphic" in2="effect1_dropShadow_2_5" result="shape"/>
</filter>
<linearGradient id="paint0_linear_2_5" x1="-97.2037" y1="2.99987" x2="-39.1695" y2="24.3015" gradientUnits="userSpaceOnUse">
<stop stop-color="#0BCDED"/>
<stop offset="1" stop-color="#5576E7"/>
</linearGradient>
<linearGradient id="paint1_linear_2_5" x1="4.19574" y1="-2.37513" x2="118.826" y2="85.1647" gradientUnits="userSpaceOnUse">
<stop stop-color="#51E6FF"/>
<stop offset="0.475429" stop-color="#3F91E9"/>
<stop offset="0.618301" stop-color="#663DFF" stop-opacity="0.61"/>
</linearGradient>
</defs>
</svg>
